<?xml version="1.0" encoding="utf-8"?>

<!DOCTYPE svg PUBLIC "-//W3C//DTD SVG 1.1//EN" "http://www.w3.org/Graphics/SVG/1.1/DTD/svg11.dtd">
<svg version="1.1" id="Layer_1" xmlns="http://www.w3.org/2000/svg" xmlns:xlink="http://www.w3.org/1999/xlink" x="0px" y="0px"
	 viewBox="0 0 2620.469 1310.754" enable-background="new 0 0 2620.469 1310.754" xml:space="preserve">
<g id="World_Minus_Antarctica_Detailed">
</g>
<g>
	<g>
		<polygon points="1262.054,356.452 1254.814,356.452 1254.814,365.362 1259.824,367.252 		"/>
		<polygon points="1210.344,382.182 1198.484,392.472 1210.344,392.472 		"/>
		<polygon points="1276.914,231.402 1271.254,233.722 1269.514,242.672 1280.074,242.562 1283.284,237.712 		"/>
		<path d="M2400.894,152.302l-14.37,11.19l36.91,10.05l-0.93,7.49l-73.37,23.23l30.97,29.81v50.26l-54.92-52.02l1.63-27.59
			l13.55-9.23l-14.04-13.43l-8.06-0.84l-0.11,12.08l-32.55-12.32l-8.38,26.21l-77.13-0.59l-6.42,46.17l37.39,0.59l38.59,43.83v37.41
			l-13.49,20.14l-24.98,4.39l2.33,26.84l-13.44,1.75l10.39,8.51l23.52,19.24l-2.89,19.59l-16.98,1.17l-14.04-30.4l-13.34-3.73
			l-10.12-19.2l-18.02,12.39l-12.85-24.52l-18.72,16.37l14.7,24.14l7.51-4.86h23.4l-20.35,22.2l39.62,65.21l-22.21,49.71
			l-67.93,24.28l-0.43-11.16l-11.49,6.53l-0.01-0.01l-12.51,7.07l-1.74,20.31l35.11,37.06l1.14,33.05l-33.64,22.2l-0.43-18.83
			l-11.82,1.63l-10.5-10.45l-21.07-20.85l-4.35,42.68l18.72,27.6l29.18,43.11l-2.39,9.36l-30.92-26.35l-7.51-24.38l-1.86-5.99
			l-19.26-16.33l0.65-10.78l1.69-27.32l-7.13-26.46l-12.85-14.47l-6.91,8.65l-9.64-2.88l-5.22-27.33l-13.67-11.43l-30.37-25.48
			l-6.8,6.59l-64.07,61.89l-4.36,51.17l-28.08,17.25l-44.26-127.26l-5.44-0.06l-2.45,11.44l-13.77-1.64l-7.68-9.96l8.11-8.33
			l-17.36-5.49l-1.8-2.13l-12.62-14.37h-47.9v0.01h-15.25l-54.92-16.39l-29.83-31.12l-12.21-0.99l-1.88-0.28
			c-0.88-0.17-8.99-0.89-8.99-0.89l10.24,16.66l19.32,31.57l2.35,1.55l3.71-11.94l8.49,11.97l-4.74,4.9l5.65,3.73l18.29,3.59
			l14.42-16.22l9.2,8.16l24.72,21.99l-44.64,55.31l-88.62,39.95l-12.08-39.41l-1.36-4.41c0,0-68.07-118.08-68.17-118.18l-0.14,0.33
			l-0.01-0.01l-0.16,0.44l-5.17,12.11l-19-15.48l34.73,59.65v0.05l22.59,38.87l37.94,65.16l7.79,13.39l3.42,5.88l65.65-9.74
			l3.86,19.26l-94.44,109.85l-15.89,18.56l5.88,65.59l4.84,45.51l-48.66,39.9l1.52,43.6l-20.73,14.48l-0.66,4.84v0.19l-2.39,16.6
			l-53.07,61.4h-68.97l-21.01-57.53v-0.19l-35.98-101.41l-1.42-17.53l16.33-26.89v-63.85l-5.44-7.24l-9.96-13.28l-19.76-26.4
			l0.49-23.57l0.38-14.42h-0.05l0.43-19.81h-33.31l-3.48-15.52l-25.42-3.7l-4.79,1.36l-11.38,3.26v0.01l-31.46,9.09l-46.38,13.39
			l-31.63-34.13l0.03-0.03l-15.1-16.25l-15.73-16.98v-0.01l-12.31-13.28l0.06-0.59h-0.06l0.49-12.9l0.28-7.84l1.19-33.75l1.2-34.67
			h0.06l0.43-12.57l39.95-52.04h0.01l47.13-61.34l49.1-5.11v0.03l43.06-16.47l32.22,0.93v-0.02l27.54,0.81l-1.14,31.57l9.06,2.17
			l0.03-0.03l24.88,5.97l11.59,14.05l29.23,5.84l13.28-19.87l32.12,4.36v-0.02l76.42,10.39l0.01,0.01l6.09-22.49l3.16-14.96
			l3.21-14.96v-0.02l-68.53-3.78l-14.92-29.97l18.13,0.15l8.05-9.65l93.85-3.07c0,0,0.23-0.11,0.27-0.18l-0.11-16.14l-34.89-12.22
			l-1.69-15.38l9.64-2.63l-3.92-9.34v-0.02l-32.55,6.92l12.41,15.85l-13.07,1.02l-9.69-5.48l6.97-7.23h-31.46l-2.45,6.69
			l-4.36,13.48l-5.22,16.05l6.75,14.53h-30.54l-16.76,8.25l8.43,18.42l-7.56,11.97l-12.03-15.12l9.09-3.85l-14.92-4.17l-7.71-8.92
			l-0.02,0.01l-1.36-1.59l-12.14-22.92v-0.01l-6.04-1.5v0.02l-3.81-0.95l-18.45-21.34l-3.97,0.24l-2.24,0.11l-15.07,0.9l53.12,45.98
			l-9.9,1.99l-2.51,13.29l-8,4.68l-2.23-18.49l-43.55-43.46h-15.18l-1.15,16.36l-39.19-0.28l-8.27,10.69l-26.78-17.13l-2.4-32.02
			l-18.07-9.77v-6.42h15.35l41.8-25.06l9.97-5.95l16.92-10.13v0.03l16.99-10.17l-2.29-5.53l-2.99-7.05l7.24-16.32l10.18,0.14
			l-3.71,20.8l0.6,2.43l1.47,5.74l32.28,0.37h0.06l2.23,0.03l25.15-6.14l3.97,3.64l17.53-0.57l0.05,0.01l0.16-8.76l-0.05-11.71
			l-0.05-10.24l17.25,7.89l1.74-7.89l-1.58-1.18l-7.4-5.57l2.07-5.26l25.04-0.57l4.79-4.5v-0.04l4.13-3.87l0.02-0.02h-30.33
			l-19.98-10.08l17.09-38.72h-12.68l-35.55,38.85l15.79,19.59l-33.75,29.89l-20.68-23.81l-2.24-2.56l-32.16,5.25l-10.73-25.15
			l106.96-74.03l31.19-1.59v-0.03l15.9-0.81v0.02l15.56-0.79l73.65,23.48l-18.72,9.35l-38.43-1.45l13.33,25.41l101.08-41.49
			l108.16-2.93l-13.44-30.6l27.98,2.21l15.84,51.77l17.52-18.11l-20.3-25.14l92.75-41.49h105.22l7.02,25.13h113.99l21.01,15.78h50.4
			l17.53-15.78l62.27,10.18l10.07,13.68l178.54,5.09l115.18,22.81l17.96,19.27l-22.37-0.44L2400.894,152.302z"/>
		<polygon points="1120.424,412.572 1111.654,397.092 1112.584,362.312 1112.854,350.482 1174.804,350.032 1201.584,367.162 
			1163.694,415.812 1125.324,412.942 		"/>
		<polygon points="1249.754,392.972 1259.824,392.972 1259.824,374.272 1249.754,371.342 		"/>
		<polygon points="1305.004,401.012 1283.934,401.012 1283.934,406.272 1291.834,411.672 1305.004,413.722 		"/>
		<polygon points="1116.504,253.342 1116.504,277.312 1125.704,277.252 1125.704,269.072 1143.234,271.482 1141.924,253.722 
			1148.724,251.312 1148.724,242.532 1132.724,241.452 		"/>
		<polygon points="1166.254,255.042 1157.054,260.082 1165.164,271.892 1148.724,287.482 1170.444,283.532 1192.544,280.022 
			1193.964,271.912 1198.484,271.912 1199.454,262.862 1185.144,259.842 1167.234,218.692 1153.574,218.272 1153.574,240.432 
			1166.034,241.602 		"/>
		<polygon points="1290.634,428.482 1303.914,431.902 1303.974,420.232 1290.744,419.882 		"/>
		<polygon points="1465.254,424.942 1445.714,432.172 1459.704,435.682 		"/>
		<polygon points="1079.274,148.762 1058.694,148.322 1054.344,154.262 1042.634,153.982 1042.634,164.982 1083.954,170.902 
			1108.664,158.872 1108.664,155.492 1096.414,143.072 		"/>
		<polygon points="1097.724,45.122 1126.734,39.192 1136.974,28.902 1053.304,20.482 981.024,28.902 893.494,28.902 843.034,46.432 
			802.704,58.712 802.704,71.012 864.104,71.892 879.834,99.032 879.834,123.582 850.384,140.312 851.254,173.622 869.764,192.332 
			891.644,192.332 925.064,157.012 972.254,143.092 989.944,129.542 1025.654,127.342 1050.644,119.962 		"/>
		<polygon points="1562.304,934.462 1557.894,966.032 1550.444,987.102 1559.694,1008.982 1581.844,1009.962 1619.574,888.962 
			1606.124,888.962 		"/>
		<polygon points="587.584,120.642 583.114,113.542 566.624,120.642 572.554,128.302 		"/>
		<polygon points="661.384,1280.112 673.354,1291.102 710.264,1292.472 670.414,1271.672 		"/>
		<polygon points="598.414,592.522 601.734,587.022 592.644,587.022 589.324,592.522 		"/>
		<polygon points="485.734,106.792 458.564,113.712 492.324,126.862 515.564,116.772 541.424,122.912 560.804,118.472 
			541.854,109.722 556.444,90.892 541.854,90.892 533.094,102.222 529.554,90.892 514.094,96.882 497.874,89.392 468.314,99.452 		
			"/>
		<polygon points="490.804,85.992 478.174,80.142 426.294,93.352 435.934,104.652 		"/>
		<polygon points="232.134,292.042 217.814,280.352 211.674,285.612 221.654,298.672 232.134,298.672 		"/>
		<polygon points="488.074,542.382 464.254,542.382 455.054,551.152 481.984,551.152 503.704,565.632 495.424,574.832 
			533.094,574.832 		"/>
		<polygon points="647.894,90.892 642.234,83.382 617.244,89.142 619.864,98.342 		"/>
		<polygon points="608.154,97.762 613.544,83.382 578.004,94.922 587.584,104.632 		"/>
		<polygon points="492.764,591.482 498.424,596.332 514.644,596.332 514.644,590.612 508.984,584.902 492.764,584.902 		"/>
		<polygon points="562.694,584.682 576.844,584.682 580.334,579.562 553.824,576.622 537.274,576.622 542.664,584.242 
			533.034,584.242 533.034,587.672 553.824,587.672 553.824,591.262 		"/>
		<polygon points="644.514,170.452 647.894,162.202 628.784,153.972 612.674,167.082 		"/>
		<polygon points="751.804,172.422 751.804,146.992 771.404,153.962 782.664,146.452 776.304,134.552 764.974,130.432 
			764.484,112.442 701.674,86.792 692.314,86.692 670.484,104.622 677.774,86.582 667.214,86.502 641.794,113.522 703.574,110.172 
			741.304,143.922 715.934,143.482 703.144,153.962 674.344,153.962 674.344,162.192 703.574,162.192 728.344,182.682 
			735.094,179.732 729.214,166.722 746.254,174.832 		"/>
		<polygon points="734.714,70.072 688.714,70.072 673.364,63.712 658.454,76.422 718.924,81.192 		"/>
		<polygon points="781.094,310.412 770.364,293.332 770.244,293.302 770.094,293.062 760.674,290.812 760.674,278.762 
			760.404,279.042 760.404,278.492 729.214,310.142 729.754,310.142 729.484,310.412 		"/>
		<polygon points="728.994,58.892 696.554,58.892 701.404,63.712 736.894,63.712 742.604,68.542 794.314,44.432 835.954,36.102 
			867.524,18.282 742.174,27.582 742.174,34.352 784.464,33.472 778.534,41.362 734.714,42.232 740.424,52.322 721.544,49.252 		"/>
		<path d="M827.564,794.902l-43.82-2.67l1.15-11.98l-20.25-8.76l-20.25,11.87l6.58-17.75l-13.44-5.82l-19.11,14.69l13.88-20.46
			l-12.24-26.73l-7.03-15.4l-14.91-1.26l-26.02-2.28l-27.77-26.41l0.01-0.05l-8.98-8.6l-35.65-3.48l-19.87-14.15l-46.05-0.44
			l-9.37-0.05l-19.54,26.4l-9.78,0.64l-2.77-10.11l-21.09,1.85l-7.43,6.2l-9.86-5.44l-5.59-3.1l-0.17-7.35l-1.12-51.5l-43.72,0.44
			l2.84-5.33l13.88-26.21l0.63-0.47l0.729-18.56l-18.7-0.32l-14.87,24.38l-40.93,0.02l-19.91-42.9l16.52-20.72l0.02,0.03
			l38.41-48.23l91.34,0.29l6.04,45.65l14.48,0.38l0.38-56.82l147.84-126.4l10.19-2.11l27.66-4.77l-18.4,8.76l1.74,7.61l49.97-17.56
			l-24.39-1.16l-11.37-10.25l11.26-17.47l-5.49-5.25l-35.33,16.03v-9.2l33.8-16.22l54.16-2.34l40.72-21.67l0.22-9.89l-29.67-5.14
			l-3.59-48.5l-38.81,15.28l0.271-22.82l-18.73-15.93h-25.42l-68.74,100.05l-16.66,0.05l0.33-32.9l-59.23-32.14l59.23-43.84
			l33.58-6.13l-7.02-10.38l51.71-5.7l21.07-21.92l-19.76-2.18l-27.17,17.96l3.05-15.33l-12.68-1.32l-2.99-18.54l-22,9.77l5.72,11.84
			l-29.39,14.02l-51.28-9.64l-27.11,12.71l-65.81-26.3l-125.58,2.63l0.05-0.04l-0.04,0.02l-19.87-8.19l-104.02,0.59l-42.08,16.95
			v18.7l-47.33-0.58l-8.98,12.53l39.95-1.43l-51.43,19.29l-24.85,33.66l21.34-0.35l-40.91,26.88l14.95,1.17l78.33-37.4l90.41-3.15
			l27.36,27.36l-0.14,0.15l-10.53,48.15l18.85,17.1v9.21l-69.3,73.59v56.39l25.4,25.4l0.05,0.01l0.12,0.12l3.78,40l27.33,51.71
			l11.19-8.66l-21.55-45.94v-25.86h12.71l0.5,24.05l40.82,95.91l66.57,27.76l16.62-4.41l14.37,14.66l-0.02,0.04l0.1,0.05l0.17,0.17
			l0.03-0.07l21.42,10.79l15.36,6.91l3.95,1.8l13.81,18.61l15.69,21.29l5.68,2.01l23.47,8.38l5.69-8.49l13.45,1.31l3.91,12.95h0.04
			l4.03,13.39l-3.81,24.99l-11.38,14.37l0.02,0.01l-16.68,21l-2.01,32.17l-0.7,9.91l58.78,100.1l50.78,34.02l8.55,208.2l22.48,18.18
			l1.03,37.34l38.98,50.41l12.63,1.31h0.05l10.18,1.03l-5.28-109.57l59.33-25.7l-26.89-37.44l32.01,11.75l12.84-22.26l-0.03-0.03
			l26.11-45.53l6.15-39.46l63.47-28.09l11.81-87.75l27.38-35.81v-21.67L827.564,794.902z M477.379,310.233
			c0.035-0.072,0.056-0.151,0.086-0.225l41.86-8.886l5.28,18.63l8.5,6.27l14.26-1l5.6,16.75l-8.11,0.26l-11.49,8.92l-11.7,1.17
			l2.34-20.16h-9.04l-10.56,7.01l-19.59,28.93h-11.541l22.21-35.94l26.18-5.6l-1.47-4.92l-17.26-0.59l-8.16-4.97l-10.23,4.97h-11.98
			l4.9-10.58L477.379,310.233z"/>
		<polygon points="719.304,39.262 709.624,32.022 682.564,43.422 705.914,47.832 		"/>
		<polygon points="2107.884,813.052 2107.884,795.092 2037.724,722.312 2013.714,713.112 2094.984,823.772 		"/>
		<polygon points="2121.004,587.742 2126.714,594.652 2135.044,584.262 2135.044,576.372 2121.004,579.472 		"/>
		<polygon points="2103.474,836.292 2191.164,851.152 2189.864,845.062 2158.294,829.712 2138.534,834.062 2116.654,825.732 		"/>
		<polygon points="2215.984,771.682 2215.984,705.082 2200.364,706.392 2181.644,731.592 2138.444,751.562 2138.424,751.542 
			2138.154,751.652 2138.964,775.162 2152.354,798.572 2194.924,798.572 		"/>
		<polygon points="2207.824,541.752 2219.524,552.692 2226.654,532.552 2219.524,525.092 		"/>
		<polygon points="2226.494,660.152 2203.084,681.432 2211.634,683.122 2226.824,670.492 		"/>
		<polygon points="2222.244,859.262 2226.224,864.112 2235.634,864.112 2232.374,857.092 		"/>
		<polygon points="2231.174,647.572 2238.474,654.712 2241.404,649.262 2232.374,640.392 		"/>
		<polygon points="2253.384,849.412 2245.924,845.062 2232.374,845.062 2234.984,853.822 2247.944,853.822 		"/>
		<polygon points="2254.854,655.852 2245.494,654.712 2241.404,662.112 2247.834,666.462 		"/>
		<polygon points="2259.374,676.152 2254.854,669.352 2249.684,675.282 2254.854,681.592 		"/>
		<polygon points="2237.654,590.802 2224.914,590.532 2221.814,617.752 2239.834,639.462 2260.954,642.132 2263.944,633.152 
			2244.624,631.142 2237.594,622.372 2244.624,606.262 		"/>
		<polygon points="2259.374,664.012 2266.334,674.522 2270.314,669.242 2265.364,660.582 		"/>
		<polygon points="2242.444,776.422 2238.194,770.542 2246.364,761.562 2261.494,766.782 2268.954,766.132 2280.114,752.962 
			2270.314,752.742 2263.944,756.932 2242.874,751.812 2228.944,764.392 2229.924,784.312 2221.814,795.092 2226.874,820.942 
			2236.944,817.842 2233.894,800.092 2239.834,793.512 2244.834,806.682 2256.924,810.872 2256.924,801.402 2250.114,786.382 
			2263.014,775.552 		"/>
		<polygon points="2274.174,662.382 2283.814,662.382 2274.614,647.572 2265.364,651.002 		"/>
		<polygon points="2285.394,452.942 2281.254,446.802 2268.514,448.412 2280.814,467.402 		"/>
		<polygon points="2279.674,671.692 2273.254,688.452 2252.244,688.452 2269.764,700.972 2269.764,713.112 2282.454,709.302 
			2278.154,701.462 2288.384,698.852 		"/>
		<polygon points="2277.934,855.832 2294.594,853.822 2294.594,847.672 2272.004,847.672 2258.444,862.802 2268.734,864.112 		"/>
		<polygon points="2302.484,442.422 2288.224,444.392 2296.334,453.592 		"/>
		<polygon points="2261.714,262.402 2251.204,262.102 2280.984,298.922 2295.564,326.102 2306.404,326.102 2288.274,300.392 
			2298.784,300.392 		"/>
		<polygon points="2305.424,751.812 2311.514,744.192 2307.764,739.622 2300.144,747.132 2297.254,765.862 2307.764,768.412 		"/>
		<polygon points="2322.944,792.692 2302.484,792.692 2300.144,800.912 2322.944,798.572 		"/>
		<polygon points="2313.914,369.892 2318.924,363.102 2334.924,362.882 2341.724,351.262 2306.184,336.362 2306.894,365.732 		"/>
		<polygon points="2341.294,397.362 2330.574,378.642 2319.904,375.552 2325.994,403.602 2304.174,423.402 2274.724,430.982 
			2272.104,440.012 2307.324,434.812 2310.044,448.412 2318.054,445.012 2318.924,434.312 2342.544,428.242 		"/>
		<polygon points="2356.374,773.202 2331.384,776.742 2359.414,789.432 		"/>
		<polygon points="2378.904,885.552 2366.934,881.742 2366.934,918.212 2340.804,944.342 2301.614,910.592 2313.584,888.822 
			2266.234,889.912 2253.714,916.042 2225.404,903.522 2173.694,960.672 2104.024,993.332 2104.024,1070.622 2093.134,1096.752 
			2101.294,1106.552 2233.574,1077.702 2255.344,1096.752 2278.204,1086.952 2286.374,1132.132 2353.324,1135.942 
			2430.614,1055.932 2434.974,1010.752 2392.514,950.872 		"/>
		<polygon points="2417.064,793.972 2417.064,793.942 2392.844,781.322 2370.254,799.662 2346.354,790.242 2343.684,803.412 
			2357.734,802.932 2392.564,817.462 2398.824,835.262 2387.234,842.332 2417.064,852.682 2417.064,852.702 2427.894,856.512 
			2448.634,837.462 2475.524,863.702 2500.074,868.712 2469.704,838.332 2471.174,822.282 		"/>
		<polygon points="2514.664,809.972 2484.834,825.052 2495.774,831.582 2514.664,820.972 		"/>
		<polygon points="2462.184,1219.232 2525.874,1177.312 2525.874,1166.432 2443.134,1208.342 		"/>
		<polygon points="2500.074,794.192 2522.114,809.972 2530.934,806.982 2508.564,793.642 		"/>
		<polygon points="2570.504,1125.062 2570.504,1107.642 2563.974,1110.362 2563.974,1134.862 2547.644,1151.192 2542.204,1168.602 
			2581.944,1140.302 		"/>
	</g>
	<g>
		<polygon fill="none" stroke="#FF0000" stroke-width="8" stroke-miterlimit="10" points="378.081,245.988 1155.042,256.487 
			2282.985,1007.95 2500.475,1145.943 354.082,410.979 		"/>
		<g>
			
				<line fill="none" stroke="#FF0000" stroke-width="8" stroke-miterlimit="10" x1="378.081" y1="245.988" x2="1155.042" y2="256.487"/>
			
				<line fill="none" stroke="#FF0000" stroke-width="8" stroke-miterlimit="10" x1="378.081" y1="245.988" x2="2282.985" y2="1007.95"/>
			
				<line fill="none" stroke="#FF0000" stroke-width="8" stroke-miterlimit="10" x1="378.081" y1="245.988" x2="2500.475" y2="1145.943"/>
			
				<line fill="none" stroke="#FF0000" stroke-width="8" stroke-miterlimit="10" x1="378.081" y1="245.988" x2="354.082" y2="410.979"/>
			
				<line fill="none" stroke="#FF0000" stroke-width="8" stroke-miterlimit="10" x1="1155.042" y1="256.487" x2="2282.985" y2="1007.95"/>
			
				<line fill="none" stroke="#FF0000" stroke-width="8" stroke-miterlimit="10" x1="1155.042" y1="256.487" x2="2500.475" y2="1145.943"/>
			
				<line fill="none" stroke="#FF0000" stroke-width="8" stroke-miterlimit="10" x1="1155.042" y1="256.487" x2="354.082" y2="410.979"/>
			
				<line fill="none" stroke="#FF0000" stroke-width="8" stroke-miterlimit="10" x1="2282.985" y1="1007.95" x2="2500.475" y2="1145.943"/>
			
				<line fill="none" stroke="#FF0000" stroke-width="8" stroke-miterlimit="10" x1="2282.985" y1="1007.95" x2="354.082" y2="410.979"/>
			
				<line fill="none" stroke="#FF0000" stroke-width="8" stroke-miterlimit="10" x1="2500.475" y1="1145.943" x2="354.082" y2="410.979"/>
		</g>
	</g>
	<g>
		<path fill="#FFFFFF" d="M2280.114,965.326c-55.177,0-99.906,43.516-99.906,43.516s44.729,43.516,99.906,43.516
			c55.177,0,99.906-43.516,99.906-43.516S2335.291,965.326,2280.114,965.326z M2196.788,1008.842c0,0,37.306-36.294,83.326-36.294
			c46.02,0,83.326,36.294,83.326,36.294s-37.306,36.294-83.326,36.294C2234.094,1045.136,2196.788,1008.842,2196.788,1008.842z"/>
		<g>
			<g>
				<path fill="#00008B" d="M2280.123,972.623L2280.123,972.623c9.465,0.004,18.942,3.929,25.637,10.619
					c6.69,6.695,10.615,16.172,10.619,25.637c-0.004,9.465-3.929,18.942-10.619,25.637c-6.695,6.69-16.172,10.615-25.637,10.619l0,0
					c-9.465-0.004-18.942-3.929-25.637-10.619c-6.69-6.695-10.615-16.172-10.619-25.637c0.004-9.465,3.929-18.942,10.619-25.637
					C2261.181,976.553,2270.658,972.627,2280.123,972.623z"/>
				<path id="Commonwealth_Star_2_" fill="#FFFFFF" d="M2254.984,1020.431c1.156,3.323,2.622,6.481,4.349,9.394
					c0.539-1.079,1.254-2.165,2.103-3.256c0.116,2.621,0.537,5.116,1.318,7.368c1.691,1.365,3.38,2.633,5.039,3.812
					c-0.809,0.166-1.563,0.33-2.258,0.497c1.965,2.079,4.13,3.782,6.407,4.975c-1.981-0.891-4.004-2.036-6.027-3.402
					c1.121,1.362,2.555,2.489,4.18,3.323c-2.594-1.183-5.01-2.887-7.112-4.99c-0.879-0.214-1.725-0.435-2.532-0.669
					c-0.742-1.107-1.274-2.354-1.557-3.669c-2.106-2.257-4.039-4.749-5.731-7.431c1.344,1.176,2.767,2.302,4.245,3.39
					C2256.205,1026.879,2255.403,1023.72,2254.984,1020.431L2254.984,1020.431z"/>
				<path id="Star_Alpha_Crucis_2_" fill="#FFFFFF" d="M2297.943,1036.042c-0.749,1.089-1.576,2.101-2.473,3.021
					c0.691-0.356,1.382-0.724,2.072-1.104c-1.067,0.867-2.156,1.669-3.26,2.401c-0.316,0.431-0.683,0.833-1.092,1.202
					c-0.348,0.078-0.7,0.154-1.055,0.228c-1.102,0.715-2.257,1.326-3.448,1.819c0.755-0.352,1.466-0.768,2.118-1.246
					c-0.977,0.483-1.947,0.911-2.906,1.28c1.141-0.495,2.26-1.105,3.346-1.817c-0.191-0.054-0.394-0.107-0.608-0.16
					c0.774-0.393,1.558-0.811,2.352-1.255c0.666-0.712,1.265-1.501,1.788-2.351c0.059,0.349,0.078,0.694,0.055,1.027
					C2295.907,1038.155,2296.947,1037.137,2297.943,1036.042L2297.943,1036.042z"/>
				<path id="Star_Beta_Crucis_2_" fill="#FFFFFF" d="M2293.283,993.491c0.506,1.544,0.979,3.124,1.414,4.735
					c0.643-0.592,1.264-1.183,1.858-1.774c-0.174,1.398-0.408,2.815-0.694,4.245c0.755,0.886,1.496,1.779,2.219,2.681
					c-0.753,0.151-1.518,0.3-2.294,0.45c0.212,1.749,0.372,3.509,0.477,5.273c-0.548-1.295-1.13-2.584-1.739-3.868
					c-0.513,1.29-1.061,2.58-1.637,3.868c0.118-1.765,0.192-3.527,0.22-5.281c-0.831-0.156-1.669-0.31-2.514-0.464
					c0.683-0.893,1.344-1.784,1.98-2.673c-0.562-1.443-1.145-2.866-1.743-4.268c0.812,0.596,1.623,1.197,2.429,1.803
					C2293.321,996.613,2293.331,995.036,2293.283,993.491z"/>
				<path id="Star_Gamma_Crucis_2_" fill="#FFFFFF" d="M2287.75,973.908c1.187,0.443,2.365,0.993,3.522,1.639
					c-0.177-0.235-0.393-0.453-0.636-0.653c0.917,0.495,1.782,1.073,2.582,1.726c0.826,0.419,1.656,0.864,2.487,1.335
					c-0.192,0.067-0.398,0.132-0.616,0.197c1.124,0.924,2.2,1.948,3.22,3.057c-0.968-0.821-1.949-1.595-2.939-2.321
					c0.497,0.703,0.926,1.461,1.284,2.263c-0.823-1.103-1.715-2.122-2.669-3.041c-0.435-0.093-0.873-0.183-1.315-0.272
					c-0.162-0.448-0.38-0.873-0.648-1.265c-1.02-0.654-2.044-1.24-3.066-1.749c0.607,0.222,1.224,0.457,1.851,0.705
					C2289.841,974.885,2288.816,974.342,2287.75,973.908z"/>
				<path id="Star_Delta_Crucis_2_" fill="#FFFFFF" d="M2307.082,987.183c0.981,1.331,1.885,2.726,2.701,4.176
					c-0.008-0.522-0.058-1.039-0.148-1.545c0.587,1.219,1.09,2.484,1.503,3.784c0.575,0.811,1.114,1.638,1.609,2.479
					c-0.185,0.133-0.395,0.262-0.625,0.387c0.583,1.619,1.06,3.278,1.427,4.962c-0.44-1.241-0.949-2.466-1.519-3.67
					c0.13,1.198,0.182,2.414,0.16,3.64c-0.264-1.686-0.638-3.348-1.118-4.97c-0.4-0.156-0.818-0.308-1.254-0.458
					c0.072-0.817,0.09-1.628,0.052-2.426c-0.733-1.322-1.533-2.606-2.392-3.846c0.607,0.535,1.195,1.08,1.758,1.636
					C2308.615,989.892,2307.895,988.504,2307.082,987.183z"/>
				<path id="Star_Epsilon_Crucis_2_" fill="#FFFFFF" d="M2310.246,1008.88c0.118,1.039,0.199,2.078,0.24,3.116
					c0.294,0.079,0.579,0.159,0.857,0.239c-0.272,0.724-0.567,1.445-0.884,2.161c-0.066,1.074-0.173,2.143-0.323,3.201
					c-0.126-0.573-0.274-1.147-0.442-1.721c-0.355,0.586-0.726,1.168-1.112,1.745c0.284-1.061,0.531-2.134,0.74-3.214
					c-0.16-0.718-0.345-1.437-0.553-2.156c0.344-0.083,0.68-0.167,1.009-0.251
					C2309.971,1010.963,2310.128,1009.922,2310.246,1008.88L2310.246,1008.88z"/>
				<path id="White_Cross_2_" fill="#FFFFFF" d="M2280.123,972.623L2280.123,972.623c-3.864-0.224-7.94,1.389-11.235,4.29
					c3.415-0.104,7.224-0.151,11.235-0.151c0,1.636,0,3.521,0,5.643c0,2.342,0,4.888,0,7.616c-7.063,0-13.753,0.048-19.72,0.156
					c-2.107,5.752-3.162,12.169-3.163,18.703c-2.446,0-4.68,0-6.686,0c0.001-6.486,1.386-12.915,4.057-18.566
					c-3.42,0.107-6.326,0.182-5.887,0.438c3.161-5.472,7.798-10.109,13.271-13.271c-0.186-0.327,1.54-0.328,3.548-0.433
					C2269.915,974.04,2275.093,972.453,2280.123,972.623z"/>
				<path id="White_Diagonal_2_" fill="#FFFFFF" d="M2280.123,972.623L2280.123,972.623c-4.038-0.031-7.832,0.511-10.809,1.92
					c-2.564,1.216-4.411,3.449-4.489,5.924c-0.087,2.849,1.628,6.165,4.167,9.573c2.971,3.985,6.889,7.977,11.131,12.213
					c0,2.194,0,4.406,0,6.626c-2.22,0-4.432,0-6.626,0c-4.259-4.332-8.172-8.551-11.078-12.859
					c-2.552-3.785-4.191-7.586-4.07-10.955c0.225-6.006,7.497-10.536,15.44-11.884C2275.877,972.811,2278,972.624,2280.123,972.623
					L2280.123,972.623z"/>
				<path id="White_Diagonal_Flipped_2_" fill="#FFFFFF" d="M2280.123,972.623L2280.123,972.623
					c-0.475-0.119-1.224,0.033-2.173,0.288c-1.184,0.318-2.562,0.806-4.115,1.439c-3.638,1.483-7.72,3.538-11.897,6.221
					c-8.703,5.593-16.362,13.323-17.514,21.974c-0.371,2.09-0.558,4.213-0.558,6.335c-0.033,0,0.059,0,0.276,0
					c1.179-8.948,8.907-17.216,17.649-23.918c4.222-3.235,8.351-5.896,11.993-8.14c2.954-1.82,5.163-3.041,6.338-3.921
					C2280.123,972.683,2280.123,972.591,2280.123,972.623L2280.123,972.623z"/>
				<path id="Red_Cross_2_" fill="#FF0000" d="M2280.123,972.623L2280.123,972.623c-4.953-0.257-10.178,2.171-14.123,6.326
					c4.215-0.135,9.017-0.194,14.123-0.194c0,2.349,0,5.03,0,8.013c-7.097,0-13.761,0.06-19.588,0.197
					c-3.174,6.447-4.785,14.097-4.787,21.914c-1.418,0-2.759,0-4.019,0c0.002-7.785,1.91-15.462,5.553-21.824
					c-3.732,0.122-6.971,0.16-6.491,0.513c2.231-3.07,4.951-5.79,8.021-8.021c-0.289-0.402,2.092-0.389,4.824-0.509
					C2268.315,974.792,2274.331,972.405,2280.123,972.623z"/>
				<path id="Red_Diagonals_2_" fill="#FF0000" d="M2280.123,972.623c-6.229,0.002-12.27,1.255-15.877,4.502
					c-0.333,0.023-0.641,0.048-0.922,0.075c3.233-2.464,7.763-3.789,12.564-4.329
					C2277.292,972.706,2278.708,972.624,2280.123,972.623L2280.123,972.623z M2280.123,972.623L2280.123,972.623
					c-0.602-0.228-1.841,0.234-3.509,0.855c-2.163,0.805-4.704,1.951-7.525,3.43c0.58-0.017,1.177-0.033,1.791-0.047
					c2.634-1.451,4.926-2.58,6.787-3.398C2279.01,972.872,2280.121,972.347,2280.123,972.623z"/>
				<path id="Red_Diagonals_Rotated_2_" fill="#FF0000" d="M2280.123,1008.88c-3.301-3.3-6.536-6.531-9.459-9.792
					c-2.74-3.058-5.107-6.024-6.786-8.965c1.099-0.015,2.223-0.028,3.371-0.04c3.248,4.703,7.877,9.371,12.874,14.365
					C2280.123,1005.921,2280.123,1007.399,2280.123,1008.88L2280.123,1008.88z M2243.866,1008.88c-0.036,0-0.016,0,0.059,0
					c0.478-6.547,4.738-13.059,10.428-18.558c-0.697,0.022-1.351,0.046-1.96,0.072
					C2247.124,995.843,2243.584,1002.489,2243.866,1008.88z"/>
			</g>
		</g>
	</g>
	<g>
		<path fill="#FFFFFF" d="M379.253,199.156c-55.177,0-99.906,43.516-99.906,43.516s44.73,43.516,99.906,43.516
			s99.906-43.516,99.906-43.516S434.43,199.156,379.253,199.156z M295.927,242.672c0,0,37.306-36.294,83.326-36.294
			s83.326,36.294,83.326,36.294s-37.306,36.294-83.326,36.294S295.927,242.672,295.927,242.672z"/>
		<g>
			<g>
				<path fill="#FF0000" d="M379.253,206.393L379.253,206.393c18.779,0.015,36.264,17.499,36.278,36.278
					c-0.015,18.779-17.499,36.264-36.278,36.278l0,0c-18.779-0.015-36.264-17.499-36.278-36.278
					C342.989,223.893,360.474,206.408,379.253,206.393z"/>
				<path fill="#FFFFFF" d="M379.253,206.393L379.253,206.393c6.754-0.298,13.837,3.672,18.554,10.039
					c5.183,7.008,7.934,16.509,7.936,26.239c-0.003,9.73-2.753,19.231-7.936,26.239c-4.717,6.367-11.8,10.337-18.554,10.039l0,0
					c-6.754,0.298-13.837-3.672-18.554-10.039c-5.183-7.008-7.934-16.509-7.936-26.239c0.003-9.73,2.753-19.231,7.936-26.239
					C365.416,210.065,372.499,206.095,379.253,206.393z"/>
				<path fill="#FF0000" stroke="#FF0000" stroke-width="5.331" d="M379,277.701c0.169,0,0.337,0,0.506,0
					c0.078-1.185,0.113-2.746,0.135-4.669c0.027-2.266,0.028-4.854,0.016-7.738c-0.224,0.04-0.447,0.08-0.67,0.119
					c-0.045,2.854-0.073,5.416-0.072,7.66C378.916,274.977,378.933,276.525,379,277.701z"/>
				<path fill="#FF0000" stroke="#FF0000" stroke-width="5.331" d="M379.285,207.643c-0.551,2.375-1.738,5.837-3.169,10.367
					c-0.356-0.984-0.667-1.933-0.923-2.847c-1.156,6.037-1.798,13.297-2.068,21.309c-1.896-4.168-3.534-8.194-4.608-12.061
					c-0.319,1.486-0.603,3.014-0.851,4.578c-1.898-0.874-3.68-1.742-5.326-2.621c-0.504,4.407-0.42,9.084,0.105,13.85
					c-0.792,0.043-1.572,0.086-2.341,0.129c2.434,6.249,5.791,12.239,9.286,17.94c-0.591,1.668-1.088,3.295-1.461,4.877
					c1.213,1.888,2.42,3.67,3.598,5.346c0.284,1.394,0.623,2.699,1.031,3.898c1.364-0.844,2.962-1.695,4.752-2.589
					c0.617-0.61,1.276-1.231,1.969-1.867c0.905,0.732,1.756,1.443,2.543,2.141c1.605,0.853,3.035,1.667,4.251,2.475
					c0.45-1.264,0.819-2.649,1.124-4.134c1.195-1.654,2.42-3.412,3.65-5.272c-0.397-1.51-0.914-3.062-1.522-4.649
					c3.43-5.684,6.71-11.669,9.084-17.914c-0.652-0.091-1.313-0.181-1.982-0.271c0.474-4.898,0.476-9.701-0.136-14.211
					c-1.591,0.886-3.319,1.762-5.162,2.643c-0.264-1.565-0.563-3.092-0.899-4.577c-1.07,3.852-2.724,7.866-4.647,12.024
					c-0.27-7.873-0.915-15.012-2.083-20.961c-0.27,0.865-0.593,1.761-0.958,2.687C381.09,213.437,379.883,210,379.285,207.643z"/>
			</g>
		</g>
	</g>
	<g>
		<path d="M2498.618,1096.786c-55.177,0-99.906,43.516-99.906,43.516s44.73,43.516,99.906,43.516s99.906-43.516,99.906-43.516
			S2553.795,1096.786,2498.618,1096.786z M2415.292,1140.302c0,0,37.306-36.294,83.326-36.294s83.326,36.294,83.326,36.294
			s-37.306,36.294-83.326,36.294S2415.292,1140.302,2415.292,1140.302z"/>
		<g>
			<g>
				<path fill="#00247D" d="M2498.627,1176.596L2498.627,1176.596c-18.718-0.015-36.146-17.443-36.161-36.161
					c0.015-18.718,17.443-36.146,36.161-36.161l0,0c18.718,0.015,36.146,17.443,36.161,36.161
					C2534.773,1159.153,2517.345,1176.581,2498.627,1176.596z"/>
				<g>
					<path fill="#00247D" d="M2498.627,1104.274L2498.627,1104.274c-3.522-0.204-7.224,1.105-10.312,3.534
						c2.538-1.235,4.836-2.191,6.82-2.847C2496.707,1104.442,2497.918,1104.096,2498.627,1104.274z"/>
					<path fill="#00247D" d="M2467.31,1122.354c-2.095,3.631-3.555,7.635-4.288,11.762c0.56-4.22,2.711-8.369,5.771-12.004
						C2467.874,1122.176,2467.217,1122.3,2467.31,1122.354z"/>
					<path fill="#00247D" d="M2492.309,1104.83c-4.127,0.733-8.132,2.193-11.762,4.288c-0.055-0.096,0.392-0.177,0.953-0.241
						C2484.424,1106.795,2488.24,1105.52,2492.309,1104.83z"/>
					<path fill="#00247D" d="M2498.627,1104.274L2498.627,1104.274c-5.453-0.042-10.568,0.937-13.387,3.66
						C2489.33,1105.417,2494.04,1104.118,2498.627,1104.274z"/>
					<path fill="#FFFFFF" d="M2468.793,1122.112c-3.06,3.635-5.211,7.785-5.771,12.004c-0.37,2.084-0.556,4.201-0.556,6.318
						c-0.282-6.374,3.249-13.003,8.505-18.438C2470.141,1122.032,2469.415,1122.069,2468.793,1122.112z"/>
					<path fill="#FFFFFF" d="M2478.958,1121.781c-0.175,0.478-0.343,0.961-0.504,1.449c2.646,5.724,7.788,11.329,13.563,17.204
						c2.189,0,4.395,0,6.609,0l0,0c-6.514-6.514-12.667-12.516-16.202-18.708
						C2481.232,1121.743,2480.076,1121.761,2478.958,1121.781z"/>
					<path fill="#FFFFFF" d="M2472.926,1121.926c-5.675,5.484-9.925,11.979-10.401,18.509c0.058,0,0.131,0,0.217,0
						c0.791-6.016,4.675-11.93,9.793-17.075c0.207-0.486,0.422-0.967,0.647-1.442
						C2473.096,1121.921,2473.01,1121.923,2472.926,1121.926z"/>
					<path fill="#FFFFFF" d="M2498.627,1136.014c0-0.732,0-1.462,0-2.189c-4.221-4.215-8.121-8.189-11.082-12.155
						c-0.591,0.005-1.177,0.01-1.757,0.016C2489.027,1126.378,2493.643,1131.034,2498.627,1136.014z"/>
					<path fill="#FFFFFF" d="M2484.084,1108.686c0.38-0.261,0.765-0.512,1.155-0.753c2.819-2.723,7.934-3.702,13.387-3.66l0,0
						c-6.212,0.001-12.238,1.252-15.835,4.491C2483.192,1108.736,2483.624,1108.71,2484.084,1108.686z"/>
					<path fill="#FFFFFF" d="M2487.421,1108.553c0.067-0.002,0.134-0.004,0.201-0.006c2.813-1.475,5.348-2.617,7.505-3.421
						c1.663-0.619,2.899-1.08,3.5-0.852l0,0c-0.709-0.178-1.92,0.168-3.492,0.687c-1.984,0.656-4.282,1.611-6.82,2.847
						C2488.012,1108.046,2487.715,1108.294,2487.421,1108.553z"/>
					<path fill="#FFFFFF" d="M2492.329,1108.446c2.935-1.808,5.13-3.021,6.298-3.896c0-0.217,0-0.309,0-0.276l0,0
						c-0.013-1.133-4.363,1.552-9.219,4.226C2490.353,1108.478,2491.328,1108.461,2492.329,1108.446z"/>
					<path fill="#FFFFFF" d="M2481.872,1108.839c3.224-2.458,7.743-3.779,12.531-4.318c-0.701,0.082-1.399,0.185-2.094,0.309
						c-4.069,0.69-7.885,1.965-10.809,4.048C2481.617,1108.865,2481.741,1108.852,2481.872,1108.839z"/>
					<path fill="#CC142B" d="M2472.926,1121.926c-0.695,0.022-1.347,0.046-1.955,0.071c-5.256,5.435-8.786,12.063-8.505,18.438
						c-0.036,0-0.016,0,0.059,0C2463.001,1133.905,2467.25,1127.41,2472.926,1121.926z"/>
					<path fill="#CC142B" d="M2482.425,1121.727c3.535,6.192,9.687,12.194,16.202,18.708l0,0c0-1.477,0-2.951,0-4.421
						c-4.984-4.98-9.6-9.636-12.84-14.327C2484.642,1121.699,2483.521,1121.712,2482.425,1121.727z"/>
					<path fill="#CC142B" d="M2489.408,1108.5c4.856-2.675,9.205-5.359,9.219-4.226l0,0l0,0c-0.6-0.227-1.836,0.233-3.499,0.852
						c-2.157,0.803-4.692,1.946-7.505,3.421C2488.201,1108.53,2488.796,1108.514,2489.408,1108.5z"/>
					<path fill="#CC142B" d="M2482.792,1108.764c3.597-3.239,9.623-4.489,15.835-4.49c-1.411,0-2.823,0.083-4.224,0.248
						c-4.788,0.539-9.307,1.86-12.531,4.318C2482.152,1108.812,2482.459,1108.788,2482.792,1108.764z"/>
					<path fill="#FFFFFF" d="M2484.541,1110.583c4.204-0.135,8.993-0.193,14.085-0.193c0-0.703,0-1.366,0-1.988
						c-2.14,0-4.25,0.014-6.298,0.044c-1.001,0.014-1.976,0.032-2.921,0.054c-0.612,0.014-1.207,0.03-1.786,0.047
						c-0.067,0.002-0.134,0.004-0.201,0.006c0.293-0.259,0.591-0.507,0.894-0.745c3.088-2.429,6.79-3.738,10.312-3.534l0,0
						C2493.687,1104.018,2488.476,1106.439,2484.541,1110.583z"/>
					<path fill="#FFFFFF" d="M2479.09,1118.579c-3.165,6.43-4.773,14.06-4.774,21.856c0.488,0,0.984,0,1.488,0
						c0.001-5.964,0.885-11.837,2.651-17.204c0.161-0.488,0.329-0.972,0.504-1.449c1.118-0.02,2.274-0.038,3.467-0.054
						c1.096-0.015,2.217-0.028,3.362-0.039c0.581-0.006,1.167-0.011,1.757-0.016c3.6-0.031,7.313-0.045,11.082-0.045
						c0-1.109,0-2.191,0-3.244C2491.548,1118.382,2484.902,1118.442,2479.09,1118.579z"/>
					<path fill="#FFFFFF" d="M2470.97,1121.997c0.608-0.026,1.26-0.049,1.955-0.071c0.085-0.003,0.17-0.005,0.256-0.008
						c-0.225,0.475-0.44,0.956-0.647,1.442c-2.243,5.281-3.398,11.156-3.399,17.075c0.381,0,0.771,0,1.172,0
						c0.002-7.764,1.905-15.421,5.539-21.766c-3.722,0.121-6.953,0.16-6.474,0.511c-0.742,1.021-1.43,2.081-2.061,3.174
						c-0.093-0.054,0.564-0.178,1.483-0.242C2469.415,1122.069,2470.141,1122.032,2470.97,1121.997z"/>
					<path fill="#FFFFFF" d="M2482.184,1110.672c4.667-4.235,10.667-6.616,16.443-6.398l0,0c-4.587-0.156-9.297,1.143-13.387,3.66
						c-0.39,0.24-0.775,0.491-1.155,0.753c-0.461,0.024-0.892,0.05-1.293,0.078c-0.332,0.023-0.639,0.048-0.92,0.075
						c-0.131,0.013-0.255,0.025-0.372,0.039c-0.562,0.064-1.008,0.145-0.953,0.241c-1.093,0.631-2.153,1.32-3.174,2.062
						C2477.084,1110.779,2479.458,1110.792,2482.184,1110.672z"/>
					<path fill="#CC142B" d="M2475.846,1118.669c-3.634,6.345-5.537,14.002-5.539,21.766c0.618,0,1.256,0,1.915,0
						c0.679,0,1.376,0,2.093,0c0.002-7.796,1.609-15.426,4.775-21.856c5.813-0.137,12.458-0.196,19.537-0.197
						c0-1.523,0-2.975,0-4.352c0-1.297,0-2.511,0-3.64c-5.092,0-9.882,0.059-14.085,0.193c3.934-4.144,9.145-6.566,14.085-6.309l0,0
						l0,0c-5.776-0.218-11.777,2.163-16.443,6.398c-2.726,0.12-5.1,0.107-4.812,0.508c-1.531,1.113-2.976,2.347-4.315,3.685
						c-1.339,1.339-2.573,2.783-3.685,4.315C2468.893,1118.828,2472.124,1118.79,2475.846,1118.669z"/>
				</g>
				<g>
					<g id="Southern_Cross_1_">
						<g>
							<path fill="#FFFFFF" d="M2513.842,1111.23c1.015,1.263,1.909,2.672,2.674,4.19c-0.097-0.927-0.294-1.821-0.594-2.66
								c1.135,0.868,2.259,1.784,3.363,2.747c-1.261-1.534-2.608-2.949-4.025-4.225c-0.417-0.761-0.934-1.469-1.533-2.108
								c-0.358-0.018-0.73-0.035-1.116-0.051c-1.433-1.051-2.916-1.955-4.427-2.689c1.316,0.719,2.552,1.615,3.676,2.659
								c-0.423-0.016-0.859-0.031-1.307-0.044C2511.64,1109.724,2512.738,1110.451,2513.842,1111.23z"/>
							<path fill="#FFFFFF" d="M2529.696,1126.942c-0.106-1.065-0.294-2.113-0.561-3.134c-0.298-0.017-0.618-0.034-0.962-0.05
								c-0.891-1.675-1.896-3.284-3-4.809c0.892,1.514,1.663,3.115,2.304,4.779c-0.407-0.016-0.836-0.032-1.286-0.047
								c0.825,1.047,1.605,2.121,2.333,3.22c0.486,1.756,0.839,3.564,1.06,5.401c0.151-1.126,0.226-2.246,0.218-3.35
								c0.649,1.112,1.24,2.244,1.764,3.392C2531.071,1130.504,2530.444,1128.696,2529.696,1126.942z"/>
							<path fill="#FFFFFF" d="M2514.323,1129.702c-0.577-2.056-1.221-4.06-1.923-5.999c0.127,1.941,0.153,3.942,0.092,5.988
								c-1.008-0.006-2.029-0.011-3.063-0.015c0.963,1.288,1.916,2.591,2.848,3.911c-0.17,2.144-0.422,4.306-0.743,6.473
								c0.854-1.336,1.671-2.673,2.44-4.012c0.893,1.329,1.751,2.666,2.563,4.013c-0.317-2.17-0.727-4.328-1.219-6.462
								c0.679-1.298,1.3-2.59,1.847-3.876C2516.235,1129.715,2515.288,1129.708,2514.323,1129.702z"/>
							<path fill="#FFFFFF" d="M2516.239,1168.321c1.169-1.511,2.18-3.195,3.022-5.003c-1.256,1.822-2.617,3.511-4.065,5.04
								c-0.591,0.02-1.201,0.038-1.83,0.055c-0.169,0.899-0.464,1.753-0.879,2.525c-1.463,1.25-2.985,2.328-4.541,3.201
								c1.193-0.548,2.41-1.17,3.641-1.862c-0.561,0.679-1.24,1.281-2.004,1.793c1.566-0.858,3.03-1.933,4.349-3.187
								c1.289-0.809,2.573-1.684,3.838-2.625C2517.282,1168.28,2516.772,1168.301,2516.239,1168.321z"/>
						</g>
						<g>
							<path fill="#CC142B" d="M2515.793,1113.66c-0.132-0.572-0.308-1.126-0.528-1.655c0.75,0.549,1.498,1.12,2.24,1.713
								c-0.866-0.944-1.765-1.834-2.693-2.662c-0.271-0.495-0.585-0.967-0.937-1.411c-0.258-0.012-0.522-0.023-0.792-0.034
								c-0.935-0.729-1.893-1.396-2.868-1.992c0.828,0.587,1.614,1.247,2.351,1.972c-0.288-0.011-0.581-0.021-0.879-0.031
								c0.731,0.464,1.465,0.951,2.201,1.461C2514.575,1111.841,2515.212,1112.724,2515.793,1113.66z"/>
							<path fill="#CC142B" d="M2529.077,1124.644c-0.205-0.01-0.419-0.02-0.642-0.03c-0.528-1.052-1.099-2.079-1.711-3.079
								c0.474,0.994,0.9,2.016,1.276,3.061c-0.248-0.01-0.504-0.019-0.768-0.028c0.489,0.657,0.959,1.323,1.409,1.999
								c0.316,1.08,0.581,2.18,0.795,3.296c0.035-0.684,0.039-1.363,0.013-2.036c0.42,0.682,0.819,1.372,1.194,2.07
								c-0.379-1.119-0.806-2.221-1.279-3.303C2529.299,1125.936,2529.203,1125.285,2529.077,1124.644z"/>
							<path fill="#CC142B" d="M2514.135,1130.645c-0.365-1.374-0.76-2.728-1.183-4.058c0.029,1.33,0.016,2.682-0.036,4.051
								c-0.667-0.004-1.34-0.007-2.018-0.01c0.633,0.856,1.26,1.719,1.876,2.59c-0.101,1.411-0.239,2.831-0.41,4.257
								c0.534-0.879,1.048-1.758,1.54-2.636c0.601,0.876,1.188,1.756,1.757,2.642c-0.258-1.428-0.552-2.847-0.881-4.254
								c0.452-0.859,0.879-1.716,1.276-2.57C2515.424,1130.653,2514.783,1130.649,2514.135,1130.645z"/>
							<path fill="#CC142B" d="M2515.54,1168.933c0.823-1.011,1.573-2.107,2.243-3.271c-0.937,1.172-1.921,2.274-2.945,3.296
								c-0.392,0.014-0.793,0.026-1.203,0.039c-0.175,0.607-0.411,1.189-0.705,1.733c-1.031,0.887-2.092,1.692-3.176,2.402
								c0.849-0.445,1.707-0.925,2.569-1.437c-0.363,0.499-0.784,0.962-1.252,1.383c1.02-0.7,1.984-1.5,2.877-2.387
								c0.889-0.569,1.775-1.169,2.656-1.801C2516.26,1168.905,2515.905,1168.919,2515.54,1168.933z"/>
						</g>
					</g>
				</g>
			</g>
		</g>
	</g>
	<g>
		<path d="M1148.724,209.361c-55.177,0-99.906,43.516-99.906,43.516s44.73,43.516,99.906,43.516s99.906-43.516,99.906-43.516
			S1203.901,209.361,1148.724,209.361z M1065.398,252.877c0,0,37.306-36.294,83.326-36.294c46.02,0,83.326,36.294,83.326,36.294
			s-37.306,36.294-83.326,36.294C1102.704,289.171,1065.398,252.877,1065.398,252.877z"/>
		<g>
			<g>
				<path fill="none" d="M1148.714,289.143L1148.714,289.143c-0.008,0-0.016,0-0.023,0
					C1148.699,289.143,1148.706,289.143,1148.714,289.143z"/>
				<path fill="none" d="M1148.72,289.144h-0.002c-0.003,0-0.005,0-0.007,0h-0.002c-0.007,0-0.012,0-0.016-0.001
					c0.007,0,0.015,0,0.022,0l0,0c0.007,0,0.015,0,0.022,0C1148.733,289.144,1148.727,289.144,1148.72,289.144z"/>
				<path fill="none" d="M1148.714,289.143L1148.714,289.143c0.008,0,0.016,0,0.023,0
					C1148.73,289.143,1148.722,289.143,1148.714,289.143z"/>
				<path fill="#00247D" d="M1148.714,216.61L1148.714,216.61c-5.056-0.082-9.71,0.896-11.449,3.581
					c-1.613,2.502,0.161,6.857,3.491,11.049c0.87-4.524,1.987-8.372,3.545-11.206
					C1145.513,217.835,1147.218,216.362,1148.714,216.61z"/>
				<path fill="#00247D" d="M1148.714,216.61L1148.714,216.61c1.496-0.248,3.201,1.225,4.412,3.424
					c1.558,2.834,2.675,6.683,3.545,11.206c3.33-4.192,5.104-8.547,3.491-11.049C1158.424,217.506,1153.77,216.528,1148.714,216.61z
					"/>
				<path fill="#00247D" d="M1180.118,234.737c-4.201-7.266-11.049-13.024-18.929-15.913c3.878,1.354,7.372,3.316,9.681,6.018
					c2.155,2.527,3.133,5.995,2.558,9.433c2.124,0.061,3.866,0.126,5.203,0.219C1179.553,234.558,1180.212,234.682,1180.118,234.737
					z"/>
				<path fill="#00247D" d="M1161.211,286.922c7.878-2.895,14.723-8.657,18.918-15.926c0.093,0.054-0.566,0.178-1.488,0.243
					c-1.337,0.093-3.079,0.158-5.204,0.219c0.578,3.44-0.396,6.909-2.55,9.439C1168.581,283.602,1165.088,285.566,1161.211,286.922z
					"/>
				<path fill="#00247D" d="M1148.736,289.144c5.054,0.078,9.707-0.904,11.441-3.592c1.61-2.507-0.168-6.863-3.502-11.059
					c-0.87,4.526-1.986,8.378-3.543,11.215c-1.211,2.202-2.914,3.68-4.412,3.435
					C1148.727,289.144,1148.733,289.144,1148.736,289.144z"/>
				<path fill="#00247D" d="M1148.692,289.144c0.004,0,0.009,0.001,0.016,0.001c-1.498,0.245-3.201-1.233-4.412-3.435
					c-1.558-2.838-2.674-6.689-3.543-11.215c-3.333,4.195-5.112,8.551-3.502,11.059
					C1138.985,288.24,1143.638,289.222,1148.692,289.144z"/>
				<path fill="#00247D" d="M1117.299,270.997c4.196,7.269,11.041,13.031,18.919,15.926c-3.877-1.357-7.37-3.32-9.677-6.025
					c-2.154-2.529-3.128-5.999-2.55-9.439c-2.125-0.061-3.867-0.126-5.204-0.219
					C1117.864,271.175,1117.205,271.051,1117.299,270.997z"/>
				<path fill="#00247D" d="M1136.239,218.823c-7.88,2.89-14.728,8.647-18.929,15.913c-0.093-0.054,0.565-0.179,1.487-0.243
					c1.337-0.093,3.078-0.159,5.203-0.219c-0.575-3.438,0.402-6.906,2.558-9.433
					C1128.867,222.139,1132.361,220.177,1136.239,218.823z"/>
				<path fill="#FFFFFF" d="M1170.931,271.521c1.205,3.924,0.405,8.025-2.079,10.73c-2.719,2.955-7.023,4.829-11.702,5.898
					c1.376-0.329,2.733-0.739,4.062-1.227c3.877-1.357,7.37-3.32,9.677-6.025c2.153-2.529,3.128-5.999,2.55-9.439
					C1172.641,271.481,1171.805,271.502,1170.931,271.521z"/>
				<path fill="#FFFFFF" d="M1148.737,289.143c-0.008,0-0.016,0-0.023,0C1148.722,289.143,1148.73,289.143,1148.737,289.143
					L1148.737,289.143z"/>
				<path fill="#FFFFFF" d="M1173.428,234.275c0.575-3.438-0.402-6.906-2.558-9.433c-2.309-2.703-5.803-4.664-9.681-6.018
					c-1.329-0.487-2.686-0.896-4.062-1.224c4.68,1.066,8.985,2.937,11.707,5.889c2.486,2.701,3.291,6.8,2.088,10.723
					C1171.796,234.231,1172.632,234.252,1173.428,234.275z"/>
				<path fill="#FFFFFF" d="M1123.991,271.458c-0.578,3.44,0.396,6.909,2.55,9.439c2.306,2.705,5.799,4.669,9.677,6.025
					c1.328,0.488,2.685,0.897,4.062,1.227c-4.68-1.069-8.983-2.943-11.702-5.898c-2.484-2.704-3.284-6.806-2.079-10.73
					C1125.623,271.502,1124.787,271.481,1123.991,271.458z"/>
				<path fill="#FFFFFF" d="M1157.161,271.701c-0.149,0.952-0.311,1.883-0.486,2.792c3.333,4.195,5.112,8.551,3.502,11.059
					c-1.734,2.687-6.387,3.67-11.441,3.592c-0.007,0-0.015,0-0.022,0l0,0c5.817,0.06,11.287-1.157,13.386-4.372
					c0.958-1.472,1.071-3.521,0.425-5.548c-0.763-2.388-2.395-4.897-4.499-7.527
					C1157.739,271.697,1157.451,271.699,1157.161,271.701z"/>
				<path fill="#FFFFFF" d="M1140.27,234.032c0.15-0.951,0.312-1.882,0.486-2.791c-3.33-4.192-5.104-8.547-3.491-11.049
					c1.738-2.685,6.393-3.663,11.449-3.581l0,0c-5.812-0.061-11.277,1.155-13.375,4.367c-0.957,1.47-1.071,3.517-0.426,5.541
					c0.762,2.385,2.391,4.892,4.492,7.519C1139.693,234.035,1139.981,234.033,1140.27,234.032z"/>
				<path fill="#FFFFFF" d="M1140.753,274.493c-0.175-0.91-0.336-1.841-0.486-2.792c-0.289-0.002-0.578-0.004-0.865-0.006
					c-2.103,2.63-3.736,5.14-4.499,7.527c-0.646,2.027-0.533,4.077,0.425,5.548c2.099,3.216,7.569,4.433,13.386,4.372l0,0
					c-0.007,0-0.015,0-0.022,0c-5.054,0.078-9.707-0.904-11.441-3.592C1135.641,283.045,1137.42,278.689,1140.753,274.493z"/>
				<path fill="#FFFFFF" d="M1126.506,234.212c-1.203-3.923-0.398-8.022,2.088-10.723c2.722-2.952,7.027-4.823,11.708-5.889
					c-1.376,0.328-2.734,0.737-4.062,1.224c-3.878,1.354-7.372,3.316-9.681,6.018c-2.156,2.527-3.133,5.995-2.558,9.433
					C1124.796,234.252,1125.632,234.231,1126.506,234.212z"/>
				<path fill="#FFFFFF" d="M1157.158,234.032c0.289,0.002,0.578,0.004,0.865,0.006c2.101-2.627,3.73-5.134,4.492-7.519
					c0.645-2.025,0.531-4.072-0.426-5.541c-2.098-3.212-7.563-4.427-13.375-4.367l0,0c5.056-0.082,9.71,0.896,11.449,3.581
					c1.613,2.502-0.161,6.857-3.491,11.049C1156.846,232.15,1157.008,233.081,1157.158,234.032z"/>
				<path fill="#CF142B" d="M1139.405,234.037c-2.1-2.627-3.73-5.134-4.492-7.519c-0.645-2.025-0.531-4.072,0.426-5.541
					c2.098-3.212,7.563-4.427,13.375-4.367l0,0c-2.829,0-5.661,0.333-8.413,0.989c-4.68,1.066-8.985,2.937-11.707,5.889
					c-2.486,2.701-3.291,6.8-2.088,10.723C1130.353,234.126,1134.69,234.07,1139.405,234.037z"/>
				<path fill="#CF142B" d="M1157.15,288.149c4.68-1.069,8.983-2.943,11.702-5.898c2.484-2.704,3.285-6.806,2.079-10.73
					c-3.849,0.086-8.188,0.141-12.904,0.174c2.103,2.63,3.736,5.14,4.499,7.527c0.646,2.027,0.533,4.077-0.425,5.548
					c-2.099,3.216-7.569,4.433-13.386,4.372l0,0c0.008,0,0.016,0,0.023,0C1151.567,289.141,1154.398,288.806,1157.15,288.149z"/>
				<path fill="#CF142B" d="M1126.497,271.521c-1.206,3.924-0.405,8.025,2.079,10.73c2.719,2.955,7.023,4.829,11.702,5.898
					c2.752,0.658,5.583,0.993,8.412,0.995c0.008,0,0.016,0,0.023,0l0,0c-5.817,0.06-11.287-1.157-13.386-4.372
					c-0.958-1.472-1.071-3.521-0.425-5.548c0.763-2.388,2.395-4.897,4.499-7.527
					C1134.685,271.663,1130.346,271.607,1126.497,271.521z"/>
				<path fill="#CF142B" d="M1170.923,234.212c1.203-3.923,0.398-8.022-2.088-10.723c-2.722-2.952-7.027-4.823-11.708-5.889
					c-2.752-0.656-5.583-0.989-8.413-0.989l0,0c5.812-0.061,11.277,1.155,13.375,4.367c0.957,1.47,1.071,3.517,0.426,5.541
					c-0.761,2.385-2.391,4.892-4.492,7.519C1162.738,234.07,1167.075,234.126,1170.923,234.212z"/>
				<path fill="#FFFFFF" d="M1148.714,216.61L1148.714,216.61c-1.497-0.248-3.202,1.225-4.412,3.424
					c-1.558,2.834-2.675,6.682-3.545,11.206c-0.175,0.909-0.337,1.84-0.486,2.791c-0.289,0.002-0.578,0.004-0.865,0.006
					c-4.715,0.033-9.052,0.088-12.9,0.174c-0.874,0.02-1.709,0.041-2.506,0.063c-2.125,0.061-3.866,0.126-5.203,0.219
					c-0.922,0.064-1.581,0.189-1.487,0.243c-1.266,2.192-2.302,4.517-3.085,6.924c-0.083-0.027,0.616-0.123,1.648-0.168
					c1.505-0.064,3.47-0.109,5.87-0.151c2.805-0.049,5.976-0.085,9.469-0.114c3.763-0.031,7.74-0.05,11.87-0.06
					c0.196-3.674,0.482-7.159,0.873-10.405c0.359-2.988,0.792-5.675,1.336-8.012c0.468-2.008,0.981-3.661,1.646-4.844
					C1147.437,217.018,1148.14,216.448,1148.714,216.61z"/>
				<path fill="#FFFFFF" d="M1126.497,271.521c3.849,0.086,8.188,0.141,12.904,0.174c0.288,0.002,0.576,0.004,0.865,0.006
					c0.15,0.951,0.311,1.883,0.486,2.792c0.87,4.526,1.986,8.378,3.543,11.215c1.211,2.202,2.914,3.68,4.412,3.435h0.002
					c-0.575,0.159-1.277-0.414-1.777-1.304c-0.665-1.186-1.178-2.842-1.646-4.852c-0.544-2.339-0.976-5.029-1.335-8.018
					c-0.39-3.248-0.676-6.734-0.871-10.409c-4.13-0.009-8.108-0.029-11.872-0.059c-3.494-0.028-6.666-0.065-9.471-0.113
					c-2.401-0.042-4.366-0.087-5.871-0.151c-1.032-0.044-1.732-0.14-1.648-0.167c0.781,2.407,1.816,4.734,3.08,6.926
					c-0.093,0.054,0.566,0.178,1.488,0.243c1.337,0.093,3.079,0.158,5.205,0.219
					C1124.787,271.481,1125.623,271.502,1126.497,271.521z"/>
				<path fill="#FFFFFF" d="M1183.203,241.661c-0.783-2.407-1.819-4.733-3.085-6.924c0.093-0.054-0.566-0.179-1.487-0.243
					c-1.337-0.093-3.078-0.159-5.203-0.219c-0.796-0.023-1.632-0.044-2.506-0.063c-3.847-0.086-8.185-0.141-12.899-0.174
					c-0.288-0.002-0.576-0.004-0.865-0.006c-0.15-0.951-0.312-1.882-0.486-2.791c-0.87-4.524-1.987-8.372-3.545-11.206
					c-1.211-2.199-2.916-3.673-4.412-3.424l0,0c0.574-0.162,1.277,0.408,1.777,1.297c0.665,1.184,1.178,2.837,1.646,4.844
					c0.544,2.337,0.977,5.024,1.336,8.012c0.39,3.247,0.677,6.731,0.873,10.405c4.129,0.009,8.106,0.029,11.87,0.06
					c3.493,0.028,6.664,0.065,9.469,0.114c2.4,0.042,4.365,0.087,5.87,0.151C1182.587,241.537,1183.286,241.634,1183.203,241.661z"
					/>
				<path fill="#FFFFFF" d="M1148.718,289.144h0.002c1.498,0.245,3.201-1.233,4.412-3.435c1.558-2.838,2.674-6.689,3.543-11.215
					c0.175-0.91,0.336-1.841,0.486-2.792c0.289-0.002,0.578-0.004,0.865-0.006c4.717-0.033,9.056-0.088,12.904-0.174
					c0.874-0.02,1.71-0.04,2.507-0.063c2.125-0.061,3.868-0.126,5.204-0.219c0.922-0.064,1.581-0.189,1.488-0.243
					c1.264-2.192,2.299-4.519,3.08-6.926c0.083,0.027-0.616,0.123-1.648,0.167c-1.505,0.064-3.471,0.109-5.871,0.151
					c-2.805,0.049-5.977,0.085-9.471,0.113c-3.764,0.031-7.742,0.05-11.872,0.059c-0.196,3.675-0.481,7.161-0.871,10.409
					c-0.359,2.99-0.792,5.679-1.335,8.018c-0.468,2.01-0.981,3.665-1.646,4.851C1149.995,288.731,1149.293,289.304,1148.718,289.144
					z"/>
				<path fill="#CF142B" d="M1148.711,289.144c0.002,0,0.005,0,0.007,0c0.575,0.159,1.277-0.414,1.777-1.304
					c0.664-1.186,1.178-2.842,1.646-4.851c0.544-2.339,0.976-5.029,1.335-8.018c0.39-3.248,0.676-6.734,0.871-10.409
					c4.13-0.009,8.108-0.029,11.872-0.059c3.494-0.028,6.666-0.065,9.471-0.113c2.401-0.042,4.366-0.087,5.871-0.151
					c1.032-0.044,1.732-0.14,1.648-0.167c1.171-3.61,1.771-7.41,1.771-11.205c-0.002-3.795-0.605-7.595-1.778-11.204
					c0.083-0.027-0.616-0.123-1.648-0.168c-1.505-0.064-3.47-0.109-5.87-0.151c-2.805-0.049-5.976-0.085-9.469-0.114
					c-3.763-0.031-7.74-0.05-11.87-0.06c-0.196-3.674-0.482-7.159-0.873-10.405c-0.359-2.988-0.792-5.675-1.336-8.012
					c-0.468-2.008-0.981-3.661-1.646-4.844c-0.5-0.889-1.203-1.459-1.777-1.297l0,0c-0.574-0.162-1.277,0.408-1.777,1.297
					c-0.665,1.184-1.178,2.837-1.646,4.844c-0.544,2.337-0.977,5.024-1.336,8.012c-0.39,3.247-0.677,6.731-0.873,10.405
					c-4.129,0.009-8.106,0.029-11.87,0.06c-3.493,0.028-6.664,0.065-9.469,0.114c-2.4,0.042-4.365,0.087-5.87,0.151
					c-1.032,0.044-1.731,0.14-1.648,0.168c-2.342,7.209-2.345,15.199-0.007,22.41c-0.083,0.027,0.616,0.123,1.648,0.167
					c1.506,0.064,3.471,0.109,5.871,0.151c2.805,0.048,5.977,0.085,9.471,0.113c3.764,0.031,7.742,0.05,11.872,0.059
					c0.196,3.675,0.481,7.161,0.871,10.409c0.359,2.99,0.792,5.679,1.335,8.018c0.468,2.01,0.981,3.665,1.646,4.851
					C1147.433,288.731,1148.136,289.304,1148.711,289.144z"/>
			</g>
		</g>
	</g>
	<g>
		<path fill="#FFFFFF" d="M355.148,363.851c-55.177,0-99.906,43.516-99.906,43.516s44.73,43.516,99.906,43.516
			s99.906-43.516,99.906-43.516S410.324,363.851,355.148,363.851z M271.822,407.367c0,0,37.306-36.294,83.326-36.294
			s83.326,36.294,83.326,36.294s-37.306,36.294-83.326,36.294S271.822,407.367,271.822,407.367z"/>
		<g>
			<g>
				<g>
					<g>
						<path fill="#3C3A6E" d="M355.156,371.105L355.156,371.105c-1.575-0.225-3.342,0.839-4.686,2.584
							c-1.652,2.148-2.94,5.199-3.992,8.814c-1.184,4.071-1.996,8.668-2.496,13.614c-0.522,5.173-0.674,10.509-0.465,15.844
							c-3.654-0.007-7.118-0.017-10.351-0.031c-2.965-0.013-5.627-0.028-7.959-0.048c-1.977-0.017-3.581-0.034-4.798-0.059
							c-0.821-0.017-1.298-0.06-1.266-0.063c-1.226-10.121,2.101-20.797,8.857-28.432
							C334.764,375.699,344.961,371.11,355.156,371.105z"/>
						<g>
							<path fill="#FFFFFF" d="M352.614,371.183c-0.804,0.053-1.606,0.134-2.406,0.242c-0.005,0.003-0.01,0.005-0.013,0.008
								c-0.491,0.065-0.98,0.139-1.465,0.223c-0.796,0.142-1.587,0.31-2.372,0.506c0.49-0.124,0.982-0.237,1.476-0.339
								c-0.479,0.095-0.954,0.201-1.425,0.315c0.775-0.19,1.558-0.355,2.345-0.493c0.496-0.089,0.993-0.167,1.49-0.234
								c-0.009,0.003-0.017,0.005-0.024,0.008C351.014,371.314,351.813,371.235,352.614,371.183z"/>
							<path fill="#FFFFFF" d="M352.724,371.159c-0.772,0.046-1.545,0.119-2.317,0.22c-0.018,0.003-0.035,0.005-0.051,0.008
								c-0.464,0.06-0.924,0.13-1.38,0.21c-0.772,0.135-1.542,0.296-2.307,0.484c0.491-0.119,0.982-0.228,1.472-0.326
								c-0.444,0.091-0.882,0.192-1.313,0.303c0.733-0.184,1.474-0.341,2.221-0.472c0.486-0.084,0.971-0.158,1.454-0.22
								c-0.021,0.003-0.042,0.005-0.061,0.008C351.198,371.275,351.96,371.203,352.724,371.159z"/>
							<path fill="#FFFFFF" d="M352.939,371.136c-0.707,0.039-1.417,0.105-2.126,0.198c-0.03,0.002-0.058,0.005-0.087,0.008
								c-0.417,0.056-0.828,0.121-1.233,0.197c-0.716,0.128-1.431,0.283-2.143,0.464c0.47-0.115,0.939-0.219,1.405-0.313
								c-0.389,0.087-0.77,0.184-1.144,0.292c0.658-0.178,1.325-0.329,1.999-0.453c0.455-0.079,0.907-0.149,1.355-0.207
								c-0.033,0.002-0.065,0.005-0.096,0.007C351.554,371.238,352.245,371.174,352.939,371.136z"/>
							<path fill="#FFFFFF" d="M353.251,371.116c-0.611,0.032-1.226,0.092-1.843,0.179c-0.04,0.002-0.08,0.004-0.119,0.007
								c-0.352,0.052-0.696,0.114-1.032,0.186c-0.627,0.122-1.255,0.271-1.881,0.446c0.429-0.11,0.854-0.211,1.275-0.301
								c-0.316,0.084-0.624,0.178-0.922,0.283c0.553-0.172,1.117-0.318,1.687-0.436c0.404-0.075,0.802-0.14,1.195-0.195
								c-0.043,0.002-0.085,0.004-0.127,0.006C352.068,371.206,352.657,371.147,353.251,371.116z"/>
							<path fill="#FFFFFF" d="M353.646,371.099c-0.489,0.027-0.982,0.082-1.478,0.163c-0.049,0.002-0.098,0.003-0.146,0.005
								c-0.271,0.049-0.533,0.107-0.784,0.177c-0.511,0.117-1.024,0.261-1.537,0.43c0.368-0.106,0.73-0.203,1.086-0.289
								c-0.23,0.081-0.45,0.172-0.657,0.275c0.423-0.168,0.858-0.309,1.3-0.422c0.334-0.071,0.662-0.133,0.982-0.184
								c-0.051,0.002-0.102,0.003-0.152,0.005C352.715,371.179,353.178,371.126,353.646,371.099z"/>
							<path fill="#FFFFFF" d="M351.268,371.831c0.291-0.103,0.574-0.196,0.85-0.28c-0.134,0.079-0.256,0.169-0.364,0.271
								c0.273-0.164,0.559-0.302,0.854-0.412c0.25-0.068,0.492-0.127,0.726-0.176c-0.057,0.001-0.114,0.002-0.17,0.003
								c0.307-0.077,0.623-0.126,0.944-0.149c-0.344,0.023-0.695,0.074-1.048,0.151c-0.056,0.001-0.111,0.002-0.166,0.004
								c-0.179,0.046-0.348,0.103-0.504,0.172C352.017,371.527,351.643,371.667,351.268,371.831z"/>
							<path fill="#FFFFFF" d="M346.698,372.065c-0.779,0.187-1.552,0.401-2.319,0.64c-0.024,0.006-0.047,0.012-0.068,0.018
								c-0.454,0.143-0.903,0.295-1.345,0.457c-0.76,0.273-1.511,0.571-2.252,0.895c0.477-0.205,0.958-0.4,1.443-0.585
								c-0.432,0.173-0.857,0.356-1.274,0.548c0.713-0.318,1.438-0.611,2.173-0.878c0.486-0.171,0.974-0.332,1.465-0.483
								c-0.032,0.006-0.063,0.012-0.092,0.018C345.176,372.458,345.934,372.249,346.698,372.065z"/>
							<path fill="#FFFFFF" d="M347.239,371.987c-0.738,0.18-1.473,0.388-2.203,0.621c-0.052,0.005-0.101,0.011-0.15,0.017
								c-0.407,0.139-0.808,0.287-1.2,0.446c-0.728,0.267-1.449,0.56-2.163,0.878c0.482-0.201,0.966-0.393,1.451-0.574
								c-0.377,0.17-0.746,0.349-1.105,0.539c0.654-0.313,1.321-0.6,1.999-0.862c0.48-0.167,0.96-0.324,1.44-0.471
								c-0.059,0.005-0.117,0.011-0.173,0.016C345.828,372.368,346.529,372.164,347.239,371.987z"/>
							<path fill="#FFFFFF" d="M348.127,371.916c-0.665,0.174-1.329,0.375-1.99,0.602c-0.077,0.005-0.152,0.01-0.226,0.015
								c-0.343,0.135-0.676,0.281-1,0.437c-0.664,0.262-1.323,0.55-1.977,0.862c0.466-0.197,0.931-0.385,1.395-0.563
								c-0.306,0.167-0.601,0.344-0.885,0.532c0.566-0.309,1.145-0.592,1.736-0.849c0.452-0.163,0.902-0.315,1.35-0.459
								c-0.084,0.005-0.166,0.01-0.247,0.014C346.888,372.285,347.504,372.087,348.127,371.916z"/>
							<path fill="#FFFFFF" d="M349.326,371.855c-0.563,0.169-1.126,0.365-1.687,0.586c-0.099,0.004-0.197,0.008-0.293,0.013
								c-0.263,0.133-0.515,0.276-0.754,0.43c-0.57,0.257-1.137,0.54-1.699,0.847c0.428-0.193,0.854-0.378,1.276-0.553
								c-0.221,0.165-0.429,0.341-0.624,0.527c0.449-0.304,0.913-0.583,1.389-0.836c0.405-0.159,0.806-0.308,1.203-0.449
								c-0.105,0.004-0.208,0.008-0.31,0.012C348.315,372.214,348.815,372.021,349.326,371.855z"/>
							<path fill="#FFFFFF" d="M350.782,371.806c-0.435,0.165-0.871,0.357-1.307,0.573c-0.117,0.003-0.232,0.006-0.347,0.01
								c-0.171,0.131-0.329,0.273-0.473,0.426c-0.45,0.254-0.898,0.533-1.344,0.835c0.371-0.19,0.737-0.371,1.098-0.543
								c-0.125,0.164-0.236,0.34-0.331,0.524c0.312-0.3,0.639-0.576,0.978-0.827c0.339-0.155,0.672-0.302,0.999-0.439
								c-0.121,0.003-0.241,0.006-0.36,0.009C350.045,372.158,350.408,371.968,350.782,371.806z"/>
							<path fill="#FFFFFF" d="M340.759,374.042c-0.745,0.322-1.48,0.669-2.203,1.04c-0.014,0.008-0.026,0.016-0.035,0.026
								c-0.438,0.222-0.87,0.453-1.294,0.693c-0.706,0.401-1.398,0.825-2.075,1.272c0.428-0.283,0.863-0.557,1.305-0.821
								c-0.41,0.249-0.813,0.507-1.207,0.774c0.663-0.44,1.341-0.858,2.033-1.253c0.453-0.254,0.912-0.498,1.377-0.732
								c-0.027,0.008-0.051,0.016-0.072,0.025C339.3,374.7,340.024,374.359,340.759,374.042z"/>
							<path fill="#FFFFFF" d="M341.339,373.915c-0.73,0.317-1.452,0.659-2.163,1.025c-0.057,0.008-0.111,0.016-0.163,0.025
								c-0.392,0.219-0.775,0.447-1.149,0.685c-0.699,0.397-1.386,0.818-2.06,1.261c0.457-0.28,0.919-0.552,1.386-0.814
								c-0.357,0.247-0.704,0.503-1.04,0.769c0.62-0.437,1.256-0.852,1.907-1.242c0.473-0.251,0.949-0.492,1.428-0.724
								c-0.069,0.008-0.135,0.016-0.199,0.024C339.958,374.564,340.643,374.227,341.339,373.915z"/>
							<path fill="#FFFFFF" d="M342.527,373.796c-0.683,0.312-1.359,0.649-2.027,1.01c-0.097,0.008-0.192,0.015-0.285,0.023
								c-0.328,0.216-0.645,0.442-0.951,0.679c-0.662,0.394-1.314,0.811-1.955,1.251c0.467-0.278,0.936-0.547,1.408-0.806
								c-0.287,0.245-0.562,0.5-0.824,0.765c0.548-0.434,1.114-0.846,1.694-1.233c0.471-0.247,0.943-0.486,1.416-0.714
								c-0.108,0.007-0.214,0.015-0.318,0.022C341.286,374.436,341.9,374.103,342.527,373.796z"/>
							<path fill="#FFFFFF" d="M344.276,373.69c-0.605,0.308-1.205,0.64-1.799,0.997c-0.134,0.007-0.266,0.013-0.396,0.02
								c-0.249,0.214-0.485,0.439-0.708,0.674c-0.594,0.391-1.181,0.805-1.758,1.241c0.455-0.275,0.911-0.541,1.366-0.798
								c-0.203,0.244-0.393,0.499-0.568,0.762c0.451-0.431,0.918-0.84,1.402-1.225c0.448-0.244,0.895-0.479,1.341-0.705
								c-0.144,0.006-0.285,0.013-0.425,0.019C343.231,374.322,343.747,373.993,344.276,373.69z"/>
							<path fill="#FFFFFF" d="M346.513,373.602c-0.499,0.305-0.995,0.633-1.487,0.985c-0.165,0.005-0.328,0.011-0.49,0.016
								c-0.158,0.214-0.302,0.437-0.43,0.67c-0.499,0.389-0.993,0.8-1.48,1.233c0.422-0.271,0.842-0.534,1.259-0.789
								c-0.109,0.245-0.203,0.499-0.281,0.761c0.331-0.428,0.679-0.836,1.043-1.219c0.404-0.24,0.805-0.472,1.201-0.696
								c-0.172,0.005-0.343,0.01-0.512,0.015C345.713,374.228,346.106,373.902,346.513,373.602z"/>
							<path fill="#FFFFFF" d="M349.14,373.535c-0.37,0.303-0.739,0.629-1.106,0.975c-0.189,0.004-0.376,0.008-0.563,0.012
								c-0.06,0.216-0.104,0.44-0.132,0.671c-0.379,0.387-0.756,0.796-1.129,1.224c0.37-0.268,0.735-0.528,1.095-0.782
								c-0.009,0.247-0.002,0.502,0.02,0.762c0.195-0.425,0.406-0.831,0.632-1.215c0.342-0.237,0.678-0.466,1.007-0.687
								c-0.194,0.003-0.386,0.007-0.578,0.01C348.623,374.159,348.874,373.835,349.14,373.535z"/>
							<path fill="#FFFFFF" d="M335.63,376.863c-0.683,0.443-1.352,0.908-2.006,1.396c-0.045,0.01-0.086,0.019-0.124,0.03
								c-0.366,0.291-0.723,0.59-1.069,0.898c-0.635,0.515-1.254,1.052-1.854,1.608c0.4-0.35,0.808-0.692,1.224-1.026
								c-0.33,0.317-0.649,0.642-0.955,0.976c0.561-0.55,1.142-1.08,1.741-1.588c0.427-0.324,0.861-0.639,1.302-0.946
								c-0.061,0.01-0.119,0.019-0.173,0.03C334.338,377.759,334.976,377.3,335.63,376.863z"/>
							<path fill="#FFFFFF" d="M336.827,376.708c-0.661,0.44-1.311,0.903-1.947,1.387c-0.1,0.009-0.197,0.019-0.29,0.028
								c-0.304,0.29-0.595,0.588-0.875,0.896c-0.622,0.514-1.23,1.049-1.821,1.604c0.433-0.349,0.872-0.69,1.318-1.023
								c-0.261,0.317-0.509,0.642-0.743,0.976c0.506-0.549,1.032-1.078,1.578-1.586c0.451-0.322,0.906-0.636,1.366-0.941
								c-0.116,0.009-0.228,0.018-0.337,0.028C335.641,377.599,336.226,377.142,336.827,376.708z"/>
							<path fill="#FFFFFF" d="M338.841,376.565c-0.61,0.437-1.21,0.898-1.8,1.379c-0.152,0.008-0.3,0.017-0.446,0.026
								c-0.227,0.289-0.44,0.588-0.638,0.895c-0.581,0.513-1.15,1.047-1.706,1.601c0.447-0.347,0.899-0.687,1.353-1.019
								c-0.18,0.317-0.344,0.643-0.494,0.977c0.427-0.549,0.875-1.078,1.341-1.586c0.454-0.319,0.909-0.63,1.367-0.933
								c-0.166,0.008-0.329,0.016-0.489,0.025C337.816,377.452,338.32,376.997,338.841,376.565z"/>
							<path fill="#FFFFFF" d="M341.591,376.441c-0.53,0.436-1.053,0.893-1.568,1.371c-0.197,0.007-0.392,0.014-0.585,0.022
								c-0.138,0.29-0.261,0.59-0.368,0.896c-0.513,0.512-1.016,1.044-1.509,1.596c0.442-0.346,0.884-0.684,1.327-1.015
								c-0.089,0.319-0.161,0.647-0.218,0.98c0.326-0.547,0.671-1.075,1.035-1.582c0.437-0.317,0.874-0.627,1.309-0.929
								c-0.209,0.007-0.416,0.013-0.62,0.02C340.776,377.325,341.175,376.872,341.591,376.441z"/>
							<path fill="#FFFFFF" d="M344.961,376.342c-0.425,0.435-0.846,0.89-1.262,1.364c-0.234,0.005-0.467,0.011-0.698,0.017
								c-0.042,0.293-0.067,0.592-0.077,0.898c-0.42,0.512-0.834,1.043-1.241,1.592c0.415-0.343,0.828-0.68,1.238-1.01
								c0.009,0.322,0.033,0.65,0.073,0.983c0.21-0.545,0.436-1.073,0.68-1.582c0.399-0.314,0.795-0.622,1.188-0.922
								c-0.243,0.005-0.485,0.01-0.724,0.015C344.395,377.225,344.67,376.773,344.961,376.342z"/>
							<path fill="#FFFFFF" d="M330.509,380.727c-0.6,0.554-1.181,1.127-1.742,1.719c-0.019,0.01-0.034,0.02-0.043,0.031
								c-0.336,0.355-0.661,0.717-0.974,1.087c-0.536,0.615-1.051,1.248-1.544,1.897c0.315-0.409,0.642-0.811,0.98-1.206
								c-0.298,0.378-0.584,0.764-0.857,1.157c0.476-0.643,0.975-1.27,1.495-1.879c0.353-0.387,0.716-0.766,1.09-1.138
								c-0.038,0.01-0.072,0.02-0.102,0.031C329.357,381.841,329.924,381.274,330.509,380.727z"/>
							<path fill="#FFFFFF" d="M331.439,380.553c-0.601,0.553-1.186,1.127-1.752,1.719c-0.086,0.01-0.169,0.02-0.247,0.031
								c-0.274,0.355-0.534,0.719-0.782,1.089c-0.544,0.616-1.069,1.25-1.574,1.901c0.368-0.41,0.746-0.813,1.134-1.209
								c-0.23,0.38-0.447,0.767-0.649,1.161c0.436-0.645,0.894-1.274,1.375-1.884c0.398-0.387,0.805-0.767,1.22-1.139
								c-0.106,0.01-0.207,0.02-0.305,0.03C330.364,381.667,330.891,381.1,331.439,380.553z"/>
							<path fill="#FFFFFF" d="M333.422,380.389c-0.576,0.553-1.137,1.126-1.683,1.718c-0.152,0.009-0.3,0.019-0.445,0.028
								c-0.198,0.356-0.382,0.72-0.55,1.091c-0.529,0.618-1.041,1.254-1.535,1.906c0.407-0.41,0.82-0.814,1.241-1.211
								c-0.151,0.382-0.287,0.771-0.407,1.167c0.374-0.647,0.771-1.277,1.19-1.889c0.427-0.386,0.86-0.766,1.298-1.138
								c-0.17,0.009-0.336,0.018-0.499,0.028C332.474,381.504,332.938,380.936,333.422,380.389z"/>
							<path fill="#FFFFFF" d="M336.389,380.242c-0.524,0.553-1.036,1.126-1.536,1.716c-0.212,0.008-0.421,0.016-0.626,0.025
								c-0.112,0.358-0.209,0.724-0.289,1.095c-0.489,0.619-0.964,1.256-1.424,1.909c0.426-0.41,0.857-0.814,1.293-1.21
								c-0.063,0.385-0.11,0.776-0.141,1.172c0.294-0.647,0.609-1.279,0.946-1.894c0.436-0.385,0.875-0.764,1.317-1.136
								c-0.228,0.008-0.452,0.016-0.674,0.024C335.613,381.358,335.991,380.79,336.389,380.242z"/>
							<path fill="#FFFFFF" d="M340.219,380.119c-0.447,0.553-0.886,1.125-1.315,1.714c-0.263,0.007-0.523,0.013-0.781,0.02
								c-0.019,0.36-0.022,0.727-0.011,1.098c-0.425,0.621-0.84,1.259-1.244,1.913c0.426-0.409,0.854-0.811,1.283-1.208
								c0.031,0.388,0.077,0.781,0.138,1.177c0.199-0.648,0.417-1.282,0.654-1.899c0.424-0.383,0.849-0.761,1.273-1.131
								c-0.275,0.006-0.547,0.012-0.817,0.019C339.654,381.236,339.927,380.668,340.219,380.119z"/>
							<path fill="#FFFFFF" d="M344.745,380.026c-0.348,0.554-0.691,1.125-1.03,1.712c-0.302,0.005-0.603,0.009-0.901,0.014
								c0.076,0.364,0.167,0.732,0.271,1.105c-0.34,0.622-0.674,1.259-1.001,1.911c0.406-0.407,0.811-0.809,1.214-1.205
								c0.124,0.391,0.262,0.785,0.412,1.183c0.094-0.648,0.202-1.283,0.327-1.903c0.393-0.382,0.783-0.757,1.17-1.127
								c-0.31,0.004-0.619,0.008-0.926,0.013C344.42,381.146,344.574,380.578,344.745,380.026z"/>
							<path fill="#FFFFFF" d="M326.745,385.194c-0.507,0.648-0.992,1.312-1.455,1.992c-0.058,0.009-0.112,0.019-0.161,0.029
								c-0.238,0.411-0.463,0.828-0.674,1.251c-0.436,0.699-0.848,1.412-1.237,2.137c0.275-0.455,0.564-0.904,0.864-1.348
								c-0.192,0.43-0.37,0.866-0.533,1.307c0.343-0.721,0.711-1.43,1.104-2.124c0.317-0.439,0.645-0.872,0.984-1.298
								c-0.081,0.009-0.157,0.019-0.228,0.028C325.832,386.494,326.277,385.836,326.745,385.194z"/>
							<path fill="#FFFFFF" d="M328.425,385.029c-0.504,0.65-0.989,1.317-1.455,1.999c-0.135,0.009-0.266,0.018-0.393,0.027
								c-0.165,0.413-0.314,0.833-0.448,1.258c-0.441,0.703-0.861,1.419-1.258,2.149c0.332-0.457,0.675-0.909,1.028-1.354
								c-0.115,0.433-0.214,0.872-0.297,1.315c0.296-0.725,0.618-1.438,0.963-2.136c0.366-0.44,0.742-0.875,1.126-1.303
								c-0.157,0.009-0.31,0.018-0.459,0.027C327.607,386.335,328.004,385.674,328.425,385.029z"/>
							<path fill="#FFFFFF" d="M331.31,384.877c-0.479,0.652-0.942,1.321-1.387,2.005c-0.208,0.008-0.412,0.016-0.612,0.025
								c-0.082,0.417-0.147,0.839-0.197,1.266c-0.426,0.706-0.834,1.426-1.223,2.159c0.375-0.459,0.759-0.912,1.15-1.359
								c-0.03,0.437-0.044,0.879-0.042,1.324c0.235-0.729,0.494-1.447,0.776-2.15c0.4-0.44,0.806-0.875,1.218-1.304
								c-0.228,0.008-0.453,0.016-0.673,0.024C330.628,386.188,330.958,385.524,331.31,384.877z"/>
							<path fill="#FFFFFF" d="M335.293,384.744c-0.431,0.655-0.849,1.325-1.254,2.009c-0.274,0.007-0.543,0.014-0.81,0.021
								c0.008,0.421,0.032,0.846,0.07,1.275c-0.391,0.709-0.768,1.432-1.128,2.167c0.401-0.46,0.808-0.915,1.22-1.364
								c0.059,0.442,0.132,0.887,0.221,1.335c0.161-0.731,0.342-1.451,0.545-2.158c0.416-0.441,0.835-0.877,1.258-1.307
								c-0.29,0.006-0.577,0.013-0.86,0.02C334.78,386.061,335.026,385.395,335.293,384.744z"/>
							<path fill="#FFFFFF" d="M340.205,384.638c-0.362,0.656-0.715,1.327-1.059,2.012c-0.326,0.005-0.65,0.011-0.971,0.016
								c0.099,0.424,0.212,0.852,0.338,1.282c-0.337,0.712-0.664,1.437-0.98,2.173c0.409-0.46,0.82-0.915,1.233-1.366
								c0.146,0.445,0.306,0.893,0.477,1.343c0.078-0.733,0.173-1.456,0.286-2.167c0.412-0.441,0.824-0.876,1.237-1.307
								c-0.339,0.005-0.675,0.01-1.009,0.015C339.889,385.96,340.038,385.292,340.205,384.638z"/>
							<path fill="#FFFFFF" d="M323.062,390.478c-0.384,0.721-0.744,1.455-1.079,2.199c-0.02,0.007-0.035,0.014-0.043,0.023
								c-0.197,0.451-0.379,0.908-0.547,1.369c-0.302,0.757-0.579,1.523-0.829,2.298c0.163-0.483,0.342-0.963,0.534-1.438
								c-0.149,0.465-0.284,0.935-0.403,1.409c0.233-0.772,0.492-1.536,0.778-2.29c0.212-0.474,0.438-0.943,0.677-1.408
								c-0.044,0.007-0.083,0.015-0.117,0.023C322.35,391.922,322.694,391.194,323.062,390.478z"/>
							<path fill="#FFFFFF" d="M324.212,390.334c-0.4,0.726-0.776,1.464-1.129,2.214c-0.106,0.007-0.206,0.015-0.301,0.023
								c-0.124,0.455-0.232,0.915-0.325,1.38c-0.323,0.762-0.621,1.535-0.894,2.316c0.233-0.487,0.48-0.97,0.739-1.449
								c-0.074,0.47-0.131,0.944-0.173,1.421c0.197-0.778,0.42-1.548,0.67-2.308c0.277-0.477,0.566-0.95,0.868-1.418
								c-0.13,0.007-0.255,0.015-0.375,0.022C323.572,391.789,323.879,391.055,324.212,390.334z"/>
							<path fill="#FFFFFF" d="M326.747,390.198c-0.397,0.73-0.774,1.473-1.13,2.227c-0.189,0.007-0.373,0.014-0.553,0.021
								c-0.043,0.459-0.07,0.923-0.082,1.389c-0.329,0.768-0.637,1.547-0.921,2.334c0.295-0.491,0.6-0.977,0.917-1.46
								c0.008,0.475,0.032,0.953,0.071,1.433c0.151-0.784,0.327-1.559,0.529-2.326c0.331-0.48,0.673-0.955,1.023-1.426
								c-0.212,0.007-0.419,0.014-0.622,0.021C326.21,391.662,326.466,390.924,326.747,390.198z"/>
							<path fill="#FFFFFF" d="M330.584,390.075c-0.377,0.734-0.736,1.481-1.078,2.238c-0.266,0.006-0.527,0.012-0.785,0.019
								c0.042,0.464,0.099,0.931,0.171,1.4c-0.321,0.774-0.623,1.557-0.905,2.349c0.343-0.493,0.695-0.983,1.055-1.468
								c0.091,0.48,0.197,0.962,0.318,1.445c0.097-0.788,0.217-1.569,0.359-2.341c0.371-0.482,0.75-0.959,1.135-1.432
								c-0.286,0.006-0.568,0.012-0.846,0.018C330.178,391.549,330.37,390.806,330.584,390.075z"/>
							<path fill="#FFFFFF" d="M335.571,389.972c-0.338,0.738-0.663,1.487-0.974,2.247c-0.331,0.005-0.659,0.01-0.984,0.015
								c0.126,0.467,0.266,0.936,0.42,1.408c-0.297,0.779-0.579,1.567-0.845,2.364c0.376-0.495,0.758-0.985,1.146-1.472
								c0.173,0.483,0.358,0.968,0.556,1.454c0.038-0.793,0.094-1.579,0.169-2.356c0.393-0.482,0.791-0.961,1.192-1.435
								c-0.347,0.005-0.69,0.009-1.031,0.014C335.317,391.454,335.434,390.708,335.571,389.972z"/>
							<path fill="#FFFFFF" d="M341.49,389.894c-0.282,0.741-0.556,1.492-0.822,2.254c-0.382,0.003-0.762,0.007-1.139,0.011
								c0.206,0.471,0.424,0.944,0.652,1.419c-0.257,0.782-0.505,1.572-0.743,2.37c0.392-0.495,0.786-0.987,1.183-1.476
								c0.246,0.486,0.503,0.974,0.769,1.463c-0.024-0.796-0.035-1.585-0.032-2.367c0.397-0.483,0.796-0.961,1.195-1.437
								c-0.393,0.003-0.783,0.006-1.171,0.01C341.404,391.383,341.439,390.634,341.49,389.894z"/>
							<path fill="#FFFFFF" d="M320.495,398.464c0.171-0.79,0.37-1.573,0.596-2.347c-0.27,0.777-0.514,1.563-0.731,2.356
								c-0.065,0.005-0.125,0.01-0.179,0.015c-0.08,0.484-0.144,0.97-0.193,1.459c-0.184,0.8-0.341,1.605-0.471,2.414
								c0.118-0.501,0.251-1.001,0.399-1.499c-0.029,0.493-0.042,0.988-0.039,1.485c0.083-0.809,0.194-1.613,0.332-2.412
								c0.167-0.498,0.349-0.993,0.545-1.485C320.661,398.454,320.575,398.459,320.495,398.464z"/>
							<path fill="#FFFFFF" d="M322.577,398.383c0.134-0.796,0.293-1.585,0.48-2.366c-0.285,0.784-0.546,1.576-0.783,2.375
								c-0.155,0.005-0.306,0.009-0.451,0.014c-0.002,0.489,0.012,0.98,0.042,1.472c-0.205,0.807-0.385,1.619-0.539,2.435
								c0.19-0.506,0.395-1.01,0.612-1.512c0.05,0.499,0.115,0.998,0.196,1.499c0.049-0.815,0.124-1.627,0.225-2.434
								c0.236-0.502,0.484-1.001,0.745-1.497C322.924,398.374,322.748,398.378,322.577,398.383z M322.189,399.461L322.189,399.461
								L322.189,399.461L322.189,399.461z"/>
							<path fill="#FFFFFF" d="M326.145,398.308c0.088-0.802,0.201-1.597,0.338-2.385c-0.288,0.79-0.554,1.588-0.799,2.393
								c-0.241,0.004-0.477,0.008-0.709,0.013c0.079,0.494,0.173,0.989,0.281,1.485c-0.217,0.813-0.412,1.632-0.583,2.455
								c0.256-0.51,0.524-1.019,0.803-1.524c0.129,0.504,0.272,1.008,0.429,1.512c0.011-0.823,0.046-1.642,0.105-2.457
								c0.295-0.505,0.6-1.007,0.915-1.505C326.66,398.3,326.4,398.304,326.145,398.308z"/>
							<path fill="#FFFFFF" d="M331.066,398.243c0.038-0.806,0.097-1.607,0.177-2.401c-0.277,0.795-0.536,1.598-0.778,2.408
								c-0.318,0.004-0.632,0.007-0.942,0.011c0.158,0.499,0.33,0.998,0.515,1.499c-0.219,0.819-0.42,1.643-0.601,2.471
								c0.311-0.514,0.631-1.026,0.96-1.535c0.203,0.508,0.419,1.017,0.647,1.526c-0.029-0.827-0.037-1.652-0.025-2.472
								c0.342-0.508,0.691-1.014,1.048-1.516C331.73,398.236,331.396,398.24,331.066,398.243z M330.586,399.336L330.586,399.336
								L330.586,399.336L330.586,399.336z"/>
							<path fill="#FFFFFF" d="M337.136,398.191c-0.015-0.811-0.014-1.616,0.004-2.414c-0.252,0.799-0.492,1.606-0.719,2.419
								c-0.381,0.003-0.759,0.006-1.133,0.008c0.232,0.502,0.474,1.005,0.728,1.509c-0.211,0.824-0.408,1.652-0.59,2.485
								c0.352-0.517,0.71-1.031,1.074-1.543c0.27,0.512,0.549,1.023,0.838,1.536c-0.067-0.832-0.119-1.661-0.155-2.486
								c0.372-0.51,0.75-1.017,1.132-1.522C337.918,398.186,337.526,398.189,337.136,398.191z"/>
							<path fill="#FFFFFF" d="M319.04,404.6c0.052-0.81,0.132-1.617,0.239-2.421c-0.124,0.805-0.221,1.613-0.29,2.424
								c-0.02,0.001-0.034,0.002-0.042,0.005c-0.034,0.5-0.052,1.001-0.054,1.503c-0.034,0.812-0.041,1.624-0.019,2.436
								c-0.005-0.502,0.006-1.005,0.033-1.508c0.017,0.504,0.051,1.008,0.1,1.511c-0.039-0.814-0.049-1.628-0.032-2.441
								c0.047-0.505,0.109-1.009,0.187-1.513C319.117,404.597,319.076,404.599,319.04,404.6z"/>
							<path fill="#FFFFFF" d="M320.384,404.574c0.021-0.817,0.07-1.632,0.145-2.444c-0.15,0.812-0.273,1.628-0.37,2.447
								c-0.114,0.002-0.222,0.003-0.324,0.005c0.043,0.505,0.102,1.011,0.176,1.517c-0.063,0.819-0.098,1.64-0.106,2.459
								c0.072-0.508,0.159-1.015,0.262-1.522c0.094,0.509,0.203,1.018,0.328,1.526c-0.067-0.821-0.107-1.643-0.119-2.465
								c0.123-0.51,0.26-1.02,0.413-1.527C320.648,404.571,320.514,404.572,320.384,404.574z"/>
							<path fill="#FFFFFF" d="M323.294,404.549c-0.011-0.824,0.003-1.647,0.042-2.466c-0.17,0.819-0.315,1.642-0.435,2.468
								c-0.205,0.001-0.405,0.003-0.599,0.004c0.12,0.51,0.255,1.021,0.405,1.53c-0.089,0.827-0.154,1.655-0.192,2.483
								c0.148-0.513,0.31-1.026,0.486-1.537c0.168,0.514,0.351,1.028,0.547,1.54c-0.093-0.828-0.161-1.658-0.203-2.487
								c0.195-0.515,0.404-1.029,0.625-1.541C323.739,404.546,323.514,404.547,323.294,404.549z"/>
							<path fill="#FFFFFF" d="M327.676,404.526c-0.044-0.83-0.066-1.659-0.065-2.485c-0.182,0.826-0.343,1.655-0.482,2.488
								c-0.289,0.001-0.574,0.003-0.854,0.004c0.194,0.515,0.401,1.03,0.62,1.543c-0.113,0.834-0.203,1.669-0.271,2.503
								c0.219-0.518,0.45-1.034,0.693-1.55c0.237,0.519,0.486,1.036,0.746,1.552c-0.115-0.835-0.208-1.671-0.28-2.506
								c0.26-0.519,0.532-1.037,0.814-1.552C328.286,404.523,327.979,404.525,327.676,404.526z"/>
							<path fill="#FFFFFF" d="M333.358,404.507c-0.076-0.836-0.133-1.67-0.172-2.502c-0.186,0.831-0.355,1.666-0.507,2.504
								c-0.362,0.001-0.72,0.002-1.073,0.003c0.259,0.518,0.53,1.035,0.81,1.551c-0.13,0.84-0.243,1.682-0.337,2.523
								c0.28-0.521,0.571-1.04,0.871-1.559c0.296,0.521,0.601,1.042,0.915,1.561c-0.132-0.841-0.247-1.682-0.345-2.524
								c0.313-0.522,0.635-1.042,0.965-1.561C334.104,404.505,333.729,404.506,333.358,404.507z"/>
							<path fill="#FFFFFF" d="M340.09,404.493c-0.104-0.84-0.195-1.679-0.273-2.515c-0.181,0.836-0.35,1.674-0.507,2.516
								c-0.418,0.001-0.833,0.001-1.245,0.002c0.314,0.522,0.635,1.043,0.964,1.563c-0.142,0.844-0.272,1.689-0.388,2.534
								c0.33-0.523,0.667-1.045,1.01-1.567c0.341,0.524,0.688,1.047,1.041,1.568c-0.143-0.845-0.275-1.691-0.395-2.536
								c0.352-0.524,0.711-1.046,1.074-1.568C340.941,404.491,340.514,404.492,340.09,404.493z"/>
						</g>
					</g>
					<path fill="#FFFFFF" d="M343.517,402.812c5.737-0.011,11.64-0.014,17.544-0.008c5.737,0.005,11.149,0.018,16.087,0.039
						c4.335,0.019,7.958,0.042,10.785,0.076c1.971,0.024,3.423,0.071,3.237,0.094c-0.352-2.9-1.057-5.76-2.092-8.492
						c0.194-0.074-1.219-0.192-3.087-0.259c-2.669-0.096-6.085-0.159-10.167-0.21c-4.645-0.059-9.731-0.094-15.121-0.108
						c-5.545-0.015-11.09-0.008-16.48,0.022C343.869,396.839,343.636,399.799,343.517,402.812z"/>
					<path fill="#FFFFFF" d="M349.837,374.586c5.319-0.073,10.64-0.044,15.406,0.103c3.73,0.115,7.115-0.094,6.773,0.573
						c-2.587-1.358-5.341-2.402-8.178-3.102c0.095-0.404-1.611-0.256-3.532-0.321c-2.437-0.081-5.15-0.097-7.861-0.057
						C351.496,372.399,350.624,373.377,349.837,374.586z"/>
					<circle fill="#FFFFFF" cx="355.156" cy="371.105" r="0"/>
					<path fill="#FFFFFF" d="M321.235,420.245c-0.114,0.044,0.782,0.161,2.051,0.218c1.839,0.083,4.226,0.14,7.122,0.191
						c3.359,0.059,7.123,0.101,11.223,0.131c4.36,0.031,8.898,0.046,13.525,0.046c4.627,0,9.165-0.015,13.525-0.046
						c4.1-0.029,7.864-0.071,11.223-0.131c2.897-0.051,5.283-0.108,7.122-0.191c1.269-0.057,2.165-0.174,2.051-0.218
						c1.035-2.73,1.739-5.587,2.092-8.486c0.094,0.012-0.806,0.058-2.142,0.079c-1.945,0.03-4.472,0.051-7.545,0.069
						c-3.568,0.021-7.568,0.037-11.929,0.047c-4.64,0.011-9.47,0.017-14.396,0.017c-4.926,0-9.757-0.006-14.396-0.017
						c-4.361-0.011-8.362-0.026-11.929-0.047c-3.073-0.018-5.601-0.039-7.545-0.069c-1.336-0.021-2.236-0.067-2.142-0.079
						C319.496,414.658,320.2,417.515,321.235,420.245z"/>
					<path fill="#FFFFFF" d="M345.582,385.997c4.721-0.042,9.575-0.052,14.43-0.031c4.721,0.021,9.18,0.069,13.256,0.151
						c3.589,0.072,6.601,0.161,8.962,0.295c1.664,0.094,2.969,0.236,2.783,0.365c-1.66-2.404-3.613-4.609-5.799-6.547
						c0.148-0.168-0.955-0.286-2.317-0.386c-1.916-0.141-4.349-0.234-7.237-0.31c-6.842-0.18-14.503-0.215-22.162-0.126
						C346.752,381.405,346.119,383.615,345.582,385.997z"/>
					<path fill="#FFFFFF" d="M346.473,442.607c-0.067,0.282,1.12,0.217,2.494,0.28c1.804,0.083,3.916,0.117,6.188,0.117
						c2.272,0,4.384-0.034,6.188-0.117c1.374-0.063,2.561,0.002,2.494-0.28c2.837-0.7,5.591-1.744,8.178-3.102
						c0.236,0.458-2.097,0.386-4.753,0.499c-3.515,0.149-7.65,0.211-12.107,0.211c-4.457,0-8.592-0.062-12.107-0.211
						c-2.656-0.113-4.989-0.041-4.753-0.499C340.883,440.863,343.637,441.907,346.473,442.607z"/>
					<path fill="#FFFFFF" d="M331.098,434.536c-0.441,0.504,2.895,0.469,6.667,0.606c2.378,0.087,5.032,0.148,7.914,0.191
						c3.059,0.046,6.238,0.068,9.477,0.068c3.239,0,6.418-0.022,9.477-0.068c2.883-0.043,5.537-0.105,7.914-0.191
						c3.772-0.138,7.107-0.103,6.667-0.606c2.187-1.938,4.14-4.142,5.799-6.547c0.122,0.085-0.727,0.226-1.862,0.307
						c-1.631,0.116-3.742,0.196-6.295,0.267c-2.954,0.083-6.259,0.141-9.855,0.182c-3.821,0.044-7.794,0.065-11.845,0.065
						c-4.051,0-8.025-0.021-11.845-0.065c-3.596-0.041-6.901-0.1-9.855-0.182c-2.553-0.071-4.663-0.152-6.295-0.267
						c-1.135-0.081-1.984-0.222-1.862-0.307C326.958,430.394,328.911,432.599,331.098,434.536z"/>
					<path fill="#B22134" d="M352.445,371.782c2.711-0.04,5.424-0.024,7.861,0.057c1.922,0.064,3.628-0.083,3.532,0.321
						c-2.837-0.699-5.761-1.054-8.682-1.054h0C354.26,370.977,353.294,371.231,352.445,371.782z"/>
					<path fill="#B22134" d="M347.498,379.408c7.659-0.09,15.319-0.054,22.162,0.126c2.888,0.076,5.321,0.169,7.237,0.31
						c1.362,0.1,2.465,0.218,2.317,0.386c-2.187-1.937-4.611-3.61-7.198-4.969c0.342-0.666-3.042-0.458-6.773-0.573
						c-4.766-0.147-10.087-0.175-15.406-0.103C348.957,375.94,348.185,377.569,347.498,379.408z"/>
					<path fill="#B22134" d="M344.223,393.965c5.39-0.03,10.935-0.038,16.48-0.022c5.39,0.015,10.476,0.05,15.121,0.108
						c4.081,0.052,7.497,0.115,10.167,0.21c1.868,0.067,3.281,0.185,3.087,0.259c-1.036-2.732-2.405-5.34-4.064-7.745
						c0.186-0.129-1.119-0.271-2.783-0.365c-2.361-0.134-5.373-0.222-8.962-0.295c-4.077-0.082-8.535-0.131-13.256-0.151
						c-4.854-0.021-9.709-0.011-14.43,0.031C345.015,388.513,344.565,391.18,344.223,393.965z"/>
					<path fill="#B22134" d="M343.517,411.961c-3.654-0.007-7.118-0.017-10.351-0.031c-2.965-0.013-5.627-0.028-7.959-0.048
						c-1.977-0.017-3.581-0.034-4.798-0.059c-0.821-0.017-1.298-0.06-1.266-0.063l0,0c-0.094,0.012,0.806,0.058,2.142,0.079
						c1.945,0.03,4.472,0.051,7.545,0.069c3.568,0.021,7.568,0.037,11.929,0.047c4.64,0.011,9.47,0.017,14.396,0.017
						c4.926,0,9.757-0.006,14.396-0.017c4.361-0.011,8.362-0.026,11.929-0.047c3.073-0.018,5.601-0.039,7.545-0.069
						c1.336-0.021,2.236-0.067,2.142-0.079c0.352-2.9,0.352-5.846,0.001-8.746c0.186-0.023-1.266-0.069-3.237-0.094
						c-2.827-0.035-6.45-0.057-10.785-0.076c-4.938-0.021-10.35-0.034-16.087-0.039c-5.903-0.005-11.806-0.003-17.544,0.008
						C343.398,405.857,343.398,408.916,343.517,411.961z"/>
					<path fill="#B22134" d="M325.299,427.99c-0.122,0.085,0.727,0.226,1.862,0.307c1.631,0.116,3.742,0.196,6.295,0.267
						c2.954,0.083,6.259,0.141,9.855,0.182c3.821,0.044,7.794,0.065,11.845,0.065c4.051,0,8.025-0.021,11.845-0.065
						c3.596-0.041,6.901-0.1,9.855-0.182c2.553-0.071,4.663-0.152,6.295-0.267c1.135-0.081,1.984-0.222,1.862-0.307
						c1.659-2.405,3.028-5.013,4.064-7.745c0.114,0.044-0.782,0.161-2.051,0.218c-1.839,0.083-4.226,0.14-7.122,0.191
						c-3.359,0.059-7.123,0.101-11.223,0.131c-4.36,0.031-8.898,0.046-13.525,0.046c-4.627,0-9.165-0.015-13.525-0.046
						c-4.1-0.029-7.864-0.071-11.223-0.131c-2.897-0.051-5.283-0.108-7.122-0.191c-1.269-0.057-2.165-0.174-2.051-0.218
						C322.271,422.977,323.639,425.585,325.299,427.99z"/>
					<path fill="#B22134" d="M338.296,439.505c-0.236,0.458,2.097,0.386,4.753,0.499c3.515,0.149,7.65,0.211,12.107,0.211
						c4.457,0,8.592-0.062,12.107-0.211c2.656-0.113,4.989-0.041,4.753-0.499c2.587-1.358,5.011-3.031,7.198-4.969
						c0.441,0.504-2.895,0.469-6.667,0.606c-2.378,0.087-5.032,0.148-7.914,0.191c-3.059,0.046-6.238,0.068-9.477,0.068
						c-3.239,0-6.418-0.022-9.477-0.068c-2.883-0.043-5.537-0.105-7.914-0.191c-3.772-0.138-7.107-0.103-6.667-0.606
						C333.285,436.474,335.709,438.147,338.296,439.505z"/>
					<path fill="#B22134" d="M355.156,443.661L355.156,443.661c2.922,0,5.845-0.355,8.682-1.054c0.067,0.282-1.12,0.217-2.494,0.28
						c-1.804,0.083-3.916,0.117-6.188,0.117c-2.272,0-4.384-0.034-6.188-0.117c-1.374-0.063-2.561,0.002-2.494-0.28
						C349.31,443.306,352.234,443.661,355.156,443.661z"/>
				</g>
			</g>
		</g>
	</g>
</g>
</svg>
